<svg width="207" height="111" viewBox="0 0 207 111" fill="none" xmlns="http://www.w3.org/2000/svg">
<circle cx="54" cy="55" r="54" fill="#F3F2F2"/>
<line x1="115.467" y1="66.2461" x2="205.984" y2="66.2461" stroke="#F32E2F" stroke-linecap="round" stroke-linejoin="round"/>
<path d="M118.218 79.5423C117.646 79.5423 117.133 79.4176 116.678 79.1683C116.231 78.919 115.879 78.5706 115.622 78.1233C115.366 77.6686 115.237 77.159 115.237 76.5943C115.237 76.0296 115.366 75.5236 115.622 75.0763C115.879 74.629 116.231 74.2806 116.678 74.0313C117.133 73.782 117.646 73.6573 118.218 73.6573C118.717 73.6573 119.161 73.7563 119.549 73.9543C119.945 74.145 120.257 74.4273 120.484 74.8013L119.901 75.1973C119.711 74.9113 119.469 74.6986 119.175 74.5593C118.882 74.4126 118.563 74.3393 118.218 74.3393C117.8 74.3393 117.423 74.4346 117.085 74.6253C116.755 74.8086 116.495 75.0726 116.304 75.4173C116.121 75.762 116.029 76.1543 116.029 76.5943C116.029 77.0416 116.121 77.4376 116.304 77.7823C116.495 78.1196 116.755 78.3836 117.085 78.5743C117.423 78.7576 117.8 78.8493 118.218 78.8493C118.563 78.8493 118.882 78.7796 119.175 78.6403C119.469 78.501 119.711 78.2883 119.901 78.0023L120.484 78.3983C120.257 78.7723 119.945 79.0583 119.549 79.2563C119.153 79.447 118.71 79.5423 118.218 79.5423ZM124.881 73.6573C125.607 73.6573 126.182 73.87 126.608 74.2953C127.04 74.7133 127.257 75.3256 127.257 76.1323V79.4873H126.476V76.2093C126.476 75.608 126.325 75.1496 126.025 74.8343C125.724 74.519 125.295 74.3613 124.738 74.3613C124.114 74.3613 123.619 74.5483 123.253 74.9223C122.893 75.289 122.714 75.7986 122.714 76.4513V79.4873H121.933V71.3253H122.714V74.7133C122.926 74.376 123.22 74.1156 123.594 73.9323C123.968 73.749 124.397 73.6573 124.881 73.6573ZM129.377 73.7013H130.158V79.4873H129.377V73.7013ZM129.773 72.4363C129.612 72.4363 129.476 72.3813 129.366 72.2713C129.256 72.1613 129.201 72.0293 129.201 71.8753C129.201 71.7286 129.256 71.6003 129.366 71.4903C129.476 71.3803 129.612 71.3253 129.773 71.3253C129.934 71.3253 130.07 71.3803 130.18 71.4903C130.29 71.593 130.345 71.7176 130.345 71.8643C130.345 72.0256 130.29 72.1613 130.18 72.2713C130.07 72.3813 129.934 72.4363 129.773 72.4363ZM134.729 79.5423C134.157 79.5423 133.644 79.4176 133.189 79.1683C132.742 78.919 132.39 78.5706 132.133 78.1233C131.877 77.6686 131.748 77.159 131.748 76.5943C131.748 76.0296 131.877 75.5236 132.133 75.0763C132.39 74.629 132.742 74.2806 133.189 74.0313C133.644 73.782 134.157 73.6573 134.729 73.6573C135.228 73.6573 135.672 73.7563 136.06 73.9543C136.456 74.145 136.768 74.4273 136.995 74.8013L136.412 75.1973C136.222 74.9113 135.98 74.6986 135.686 74.5593C135.393 74.4126 135.074 74.3393 134.729 74.3393C134.311 74.3393 133.934 74.4346 133.596 74.6253C133.266 74.8086 133.006 75.0726 132.815 75.4173C132.632 75.762 132.54 76.1543 132.54 76.5943C132.54 77.0416 132.632 77.4376 132.815 77.7823C133.006 78.1196 133.266 78.3836 133.596 78.5743C133.934 78.7576 134.311 78.8493 134.729 78.8493C135.074 78.8493 135.393 78.7796 135.686 78.6403C135.98 78.501 136.222 78.2883 136.412 78.0023L136.995 78.3983C136.768 78.7723 136.456 79.0583 136.06 79.2563C135.664 79.447 135.221 79.5423 134.729 79.5423ZM148.624 73.6573C149.35 73.6573 149.919 73.8663 150.329 74.2843C150.747 74.7023 150.956 75.3183 150.956 76.1323V79.4873H150.175V76.2093C150.175 75.608 150.029 75.1496 149.735 74.8343C149.449 74.519 149.042 74.3613 148.514 74.3613C147.913 74.3613 147.44 74.5483 147.095 74.9223C146.751 75.289 146.578 75.7986 146.578 76.4513V79.4873H145.797V76.2093C145.797 75.608 145.651 75.1496 145.357 74.8343C145.071 74.519 144.661 74.3613 144.125 74.3613C143.531 74.3613 143.058 74.5483 142.706 74.9223C142.362 75.289 142.189 75.7986 142.189 76.4513V79.4873H141.408V73.7013H142.156V74.7573C142.362 74.4053 142.648 74.134 143.014 73.9433C143.381 73.7526 143.803 73.6573 144.279 73.6573C144.763 73.6573 145.181 73.76 145.533 73.9653C145.893 74.1706 146.16 74.475 146.336 74.8783C146.549 74.497 146.853 74.2 147.249 73.9873C147.653 73.7673 148.111 73.6573 148.624 73.6573ZM158.134 76.8363H153.294C153.338 77.4376 153.569 77.9253 153.987 78.2993C154.405 78.666 154.933 78.8493 155.571 78.8493C155.93 78.8493 156.26 78.787 156.561 78.6623C156.862 78.5303 157.122 78.3396 157.342 78.0903L157.782 78.5963C157.525 78.9043 157.203 79.139 156.814 79.3003C156.433 79.4616 156.011 79.5423 155.549 79.5423C154.955 79.5423 154.427 79.4176 153.965 79.1683C153.51 78.9116 153.155 78.5596 152.898 78.1123C152.641 77.665 152.513 77.159 152.513 76.5943C152.513 76.0296 152.634 75.5236 152.876 75.0763C153.125 74.629 153.463 74.2806 153.888 74.0313C154.321 73.782 154.805 73.6573 155.34 73.6573C155.875 73.6573 156.356 73.782 156.781 74.0313C157.206 74.2806 157.54 74.629 157.782 75.0763C158.024 75.5163 158.145 76.0223 158.145 76.5943L158.134 76.8363ZM155.34 74.3283C154.783 74.3283 154.313 74.508 153.932 74.8673C153.558 75.2193 153.345 75.6813 153.294 76.2533H157.397C157.346 75.6813 157.129 75.2193 156.748 74.8673C156.374 74.508 155.905 74.3283 155.34 74.3283ZM159.823 78.3433C159.991 78.3433 160.131 78.402 160.241 78.5193C160.351 78.6293 160.406 78.7686 160.406 78.9373C160.406 79.0253 160.391 79.1206 160.362 79.2233C160.34 79.326 160.303 79.4433 160.252 79.5753L159.79 81.0933H159.262L159.636 79.4983C159.518 79.4616 159.423 79.3956 159.35 79.3003C159.276 79.1976 159.24 79.0766 159.24 78.9373C159.24 78.7686 159.295 78.6293 159.405 78.5193C159.515 78.402 159.654 78.3433 159.823 78.3433ZM167.925 73.6573C168.468 73.6573 168.959 73.782 169.399 74.0313C169.839 74.2733 170.184 74.618 170.433 75.0653C170.683 75.5126 170.807 76.0223 170.807 76.5943C170.807 77.1736 170.683 77.687 170.433 78.1343C170.184 78.5816 169.839 78.93 169.399 79.1793C168.967 79.4213 168.475 79.5423 167.925 79.5423C167.456 79.5423 167.031 79.447 166.649 79.2563C166.275 79.0583 165.967 78.7723 165.725 78.3983V81.6213H164.944V73.7013H165.692V74.8453C165.927 74.464 166.235 74.1706 166.616 73.9653C167.005 73.76 167.441 73.6573 167.925 73.6573ZM167.87 78.8493C168.274 78.8493 168.64 78.7576 168.97 78.5743C169.3 78.3836 169.557 78.116 169.74 77.7713C169.931 77.4266 170.026 77.0343 170.026 76.5943C170.026 76.1543 169.931 75.7656 169.74 75.4283C169.557 75.0836 169.3 74.816 168.97 74.6253C168.64 74.4346 168.274 74.3393 167.87 74.3393C167.46 74.3393 167.089 74.4346 166.759 74.6253C166.437 74.816 166.18 75.0836 165.989 75.4283C165.806 75.7656 165.714 76.1543 165.714 76.5943C165.714 77.0343 165.806 77.4266 165.989 77.7713C166.18 78.116 166.437 78.3836 166.759 78.5743C167.089 78.7576 167.46 78.8493 167.87 78.8493ZM172.4 71.3253H173.181V79.4873H172.4V71.3253ZM180.392 76.8363H175.552C175.596 77.4376 175.827 77.9253 176.245 78.2993C176.663 78.666 177.191 78.8493 177.829 78.8493C178.188 78.8493 178.518 78.787 178.819 78.6623C179.119 78.5303 179.38 78.3396 179.6 78.0903L180.04 78.5963C179.783 78.9043 179.46 79.139 179.072 79.3003C178.69 79.4616 178.269 79.5423 177.807 79.5423C177.213 79.5423 176.685 79.4176 176.223 79.1683C175.768 78.9116 175.412 78.5596 175.156 78.1123C174.899 77.665 174.771 77.159 174.771 76.5943C174.771 76.0296 174.892 75.5236 175.134 75.0763C175.383 74.629 175.72 74.2806 176.146 74.0313C176.578 73.782 177.062 73.6573 177.598 73.6573C178.133 73.6573 178.613 73.782 179.039 74.0313C179.464 74.2806 179.798 74.629 180.04 75.0763C180.282 75.5163 180.403 76.0223 180.403 76.5943L180.392 76.8363ZM177.598 74.3283C177.04 74.3283 176.571 74.508 176.19 74.8673C175.816 75.2193 175.603 75.6813 175.552 76.2533H179.655C179.603 75.6813 179.387 75.2193 179.006 74.8673C178.632 74.508 178.162 74.3283 177.598 74.3283ZM183.855 73.6573C184.611 73.6573 185.19 73.848 185.593 74.2293C185.997 74.6033 186.198 75.1606 186.198 75.9013V79.4873H185.45V78.5853C185.274 78.886 185.014 79.1206 184.669 79.2893C184.332 79.458 183.929 79.5423 183.459 79.5423C182.814 79.5423 182.301 79.3883 181.919 79.0803C181.538 78.7723 181.347 78.3653 181.347 77.8593C181.347 77.368 181.523 76.972 181.875 76.6713C182.235 76.3706 182.803 76.2203 183.58 76.2203H185.417V75.8683C185.417 75.3696 185.278 74.992 184.999 74.7353C184.721 74.4713 184.314 74.3393 183.778 74.3393C183.412 74.3393 183.06 74.4016 182.722 74.5263C182.385 74.6436 182.095 74.8086 181.853 75.0213L181.501 74.4383C181.795 74.189 182.147 73.9983 182.557 73.8663C182.968 73.727 183.401 73.6573 183.855 73.6573ZM183.58 78.9263C184.02 78.9263 184.398 78.8273 184.713 78.6293C185.029 78.424 185.263 78.1306 185.417 77.7493V76.8033H183.602C182.612 76.8033 182.117 77.148 182.117 77.8373C182.117 78.1746 182.246 78.4423 182.502 78.6403C182.759 78.831 183.118 78.9263 183.58 78.9263ZM189.87 79.5423C189.401 79.5423 188.95 79.4763 188.517 79.3443C188.092 79.205 187.758 79.0326 187.516 78.8273L187.868 78.2113C188.11 78.402 188.415 78.5596 188.781 78.6843C189.148 78.8016 189.529 78.8603 189.925 78.8603C190.453 78.8603 190.842 78.7796 191.091 78.6183C191.348 78.4496 191.476 78.215 191.476 77.9143C191.476 77.7016 191.407 77.5366 191.267 77.4193C191.128 77.2946 190.952 77.203 190.739 77.1443C190.527 77.0783 190.244 77.016 189.892 76.9573C189.423 76.8693 189.045 76.7813 188.759 76.6933C188.473 76.598 188.228 76.4403 188.022 76.2203C187.824 76.0003 187.725 75.696 187.725 75.3073C187.725 74.8233 187.927 74.4273 188.33 74.1193C188.734 73.8113 189.295 73.6573 190.013 73.6573C190.387 73.6573 190.761 73.7086 191.135 73.8113C191.509 73.9066 191.817 74.035 192.059 74.1963L191.718 74.8233C191.242 74.4933 190.673 74.3283 190.013 74.3283C189.515 74.3283 189.137 74.4163 188.88 74.5923C188.631 74.7683 188.506 74.9993 188.506 75.2853C188.506 75.5053 188.576 75.6813 188.715 75.8133C188.862 75.9453 189.042 76.0443 189.254 76.1103C189.467 76.169 189.76 76.2313 190.134 76.2973C190.596 76.3853 190.967 76.4733 191.245 76.5613C191.524 76.6493 191.762 76.7996 191.96 77.0123C192.158 77.225 192.257 77.5183 192.257 77.8923C192.257 78.3983 192.045 78.8016 191.619 79.1023C191.201 79.3956 190.618 79.5423 189.87 79.5423ZM198.739 76.8363H193.899C193.943 77.4376 194.174 77.9253 194.592 78.2993C195.01 78.666 195.538 78.8493 196.176 78.8493C196.536 78.8493 196.866 78.787 197.166 78.6623C197.467 78.5303 197.727 78.3396 197.947 78.0903L198.387 78.5963C198.131 78.9043 197.808 79.139 197.419 79.3003C197.038 79.4616 196.616 79.5423 196.154 79.5423C195.56 79.5423 195.032 79.4176 194.57 79.1683C194.116 78.9116 193.76 78.5596 193.503 78.1123C193.247 77.665 193.118 77.159 193.118 76.5943C193.118 76.0296 193.239 75.5236 193.481 75.0763C193.731 74.629 194.068 74.2806 194.493 74.0313C194.926 73.782 195.41 73.6573 195.945 73.6573C196.481 73.6573 196.961 73.782 197.386 74.0313C197.812 74.2806 198.145 74.629 198.387 75.0763C198.629 75.5163 198.75 76.0223 198.75 76.5943L198.739 76.8363ZM195.945 74.3283C195.388 74.3283 194.919 74.508 194.537 74.8673C194.163 75.2193 193.951 75.6813 193.899 76.2533H198.002C197.951 75.6813 197.735 75.2193 197.353 74.8673C196.979 74.508 196.51 74.3283 195.945 74.3283Z" fill="#9F9F9F"/>
<path d="M50.6253 55.14C50.6762 54.7533 51.8005 52.7793 52.0193 52.5402C52.238 52.2909 52.8282 51.9043 52.9961 51.8076C53.164 51.7109 53.3166 51.8381 53.8915 51.945C54.4613 52.062 54.8378 51.9857 55.2957 51.7567C55.7535 51.5278 56.4302 51.5888 56.8372 51.7567C57.2442 51.9246 58.8875 53.8019 59.0503 54.0105C59.3199 54.3667 58.9689 54.7838 58.9384 54.8347C58.9078 54.8856 58.7501 54.8449 58.6382 54.8652C58.5263 54.8754 58.6789 55.3893 58.6789 55.3893C58.6789 55.3893 58.8061 55.8675 58.857 56.2236C58.9078 56.5798 58.4194 56.9461 58.4194 56.9461C58.4194 56.9461 57.6512 56.6866 57.4223 56.5085C57.1933 56.3305 56.7049 56.2491 56.4963 56.2491C56.2776 56.2491 55.9571 56.5187 55.9978 56.8443C56.0385 57.1699 56.1758 57.5871 56.1758 57.5871C56.1758 57.5871 54.853 57.6176 54.4511 57.6583C54.0543 57.699 52.8689 58.0043 52.411 57.8873C51.9531 57.7702 51.714 57.0631 51.7344 56.8443C51.7445 56.6255 51.6428 56.2491 51.6072 56.2084C51.5767 56.1677 51.4291 56.1168 51.0781 56.0506C50.7169 55.9998 50.5744 55.5266 50.6253 55.14ZM55.9927 55.4859C56.0741 55.7861 56.4912 55.7861 56.4912 55.7861C56.7914 56.0913 56.8423 55.5979 56.5421 55.2977L56.4149 55.1705C55.8858 54.7431 55.9062 55.1756 55.9927 55.4859ZM56.1656 53.4C56.2165 53.5069 56.2572 52.8557 56.3742 52.9014C56.7711 53.049 56.9135 52.3876 56.5218 52.2553C56.4098 52.2146 56.3132 52.1841 56.1911 52.1739C55.7739 52.1129 55.9927 53.0642 56.1656 53.4ZM54.5122 56.0913L54.6394 55.9642C54.5783 55.3791 54.4511 55.2214 54.151 55.5266L54.0238 55.6538C53.7236 55.954 54.212 56.3966 54.5122 56.0913ZM53.9322 53.1253C54.2527 53.3949 54.1917 53.1049 53.9322 52.7692C53.632 52.3825 53.2454 52.2146 52.7773 52.6114C52.4568 52.8811 52.6857 53.2779 53.0063 53.0083C53.2454 52.815 53.6727 52.9065 53.9322 53.1253ZM52.9656 56.1219C53.2149 55.8828 53.2352 55.1603 52.935 55.4656C52.4975 55.8828 52.6654 56.4169 52.9656 56.1219Z" fill="#F32E2F"/>
<path d="M50.2656 49.0597C49.589 49.8127 49.3295 51.3237 50.5658 51.6696C50.6676 51.7002 50.7642 51.6493 50.8151 51.5679C51.0135 51.2881 50.4641 51.1609 50.3369 51.0337C49.7874 50.469 50.1181 49.7415 50.3572 49.1106C50.3928 49.0597 50.3114 49.0139 50.2656 49.0597ZM51.4765 49.8178C51.3646 50.0365 51.2679 50.3062 51.3646 50.5504C51.4256 50.7081 51.6444 50.8098 51.7817 50.6674C51.7919 50.6572 51.8021 50.647 51.8123 50.6267C51.8224 50.6877 51.853 50.7539 51.914 50.7844C52.2244 50.9726 52.5805 50.7539 52.6822 50.4283C52.7942 50.0823 52.611 49.8432 52.3821 49.6346C52.4533 49.4464 52.2549 49.1869 52.0412 49.3192C51.8835 49.4108 51.7512 49.5074 51.624 49.6244C51.5833 49.655 51.5426 49.6855 51.5325 49.7516C51.5172 49.7669 51.4968 49.7872 51.4765 49.8178ZM34.0872 74.3806C34.0974 74.3602 34.0872 74.3297 34.0567 74.35C30.3122 76.8684 26.9544 80.333 23.9171 83.6399C21.236 86.5754 18.916 89.801 18.0105 93.7387C17.9087 94.1763 18.5803 94.3645 18.6769 93.927C20.6407 85.273 28.7554 80.7197 34.0872 74.3806ZM51.7258 45.7579C51.6749 45.6765 51.5477 45.6968 51.5579 45.8088C51.5782 46.2565 51.7461 46.5922 51.6393 47.04C51.5121 47.5741 51.5121 47.915 51.797 48.3882C51.8275 48.439 51.8988 48.3983 51.8682 48.3373C51.6088 47.7827 51.9191 47.3452 51.97 46.7907C52.0056 46.4396 51.8886 46.053 51.7258 45.7579ZM38.7169 39.5714C38.6965 39.6121 38.7372 39.6426 38.7677 39.6121C39.7751 38.7676 40.7315 38.2639 41.805 38.0044C42.3748 37.9637 42.9497 37.9129 43.5297 37.8671C44.6948 37.8365 45.8395 37.9383 46.974 38.3657C47.1928 38.4471 47.4013 38.1978 47.3403 37.9993C47.3098 37.8925 47.2691 37.8213 47.2284 37.7297C47.5184 37.9179 47.6761 38.035 47.8948 38.3046C47.9355 38.3555 47.7829 38.3962 47.7829 38.442C47.7829 38.5997 48.429 38.3809 48.2713 38.1825C48.0831 37.9434 47.9915 37.7551 47.7524 37.5669C47.5234 37.3888 47.3556 37.3176 47.0961 37.1904C47.0554 37.1701 47.0554 37.2209 47.0859 37.2515C47.2233 37.343 47.3556 37.4702 47.4827 37.6076C47.381 37.5567 47.264 37.516 47.1419 37.5008C47.1317 37.5008 47.1317 37.5008 47.1215 37.5109C46.8519 37.0531 46.4245 36.7987 45.7988 36.6969C44.532 36.4782 42.7411 36.5596 41.5354 36.9869C41.3878 37.0378 41.3268 37.226 41.3675 37.3532C41.2301 37.3939 41.0877 37.4245 40.9503 37.4804C40.8384 37.5211 40.8587 37.6788 40.9808 37.689C40.991 37.689 41.0114 37.689 41.0215 37.689C40.0447 38.0044 39.1849 38.5793 38.7169 39.5714ZM53.6794 43.1073C53.6998 43.2548 53.4912 43.2548 53.4403 43.1378C53.2215 42.5832 53.2928 42.0847 53.5319 41.6471C53.5013 41.6471 53.4708 41.637 53.4403 41.6166C52.3821 40.884 51.4358 41.4792 50.3521 41.7234C50.8304 42.1406 51.2577 42.6341 51.3493 43.2599C51.4002 43.5855 50.9118 43.7381 50.8507 43.3973C50.693 42.5731 49.8943 41.6726 48.9785 41.0926C49.0701 41.408 48.9683 41.7285 49.3194 41.9168C50.1537 42.3645 50.6421 43.3667 50.4946 44.3079C50.4539 44.5877 50.3572 44.8625 50.2453 45.1219C49.1413 47.8234 46.7298 49.9653 43.9113 50.7081C43.3211 50.8658 42.7055 50.8353 42.0797 50.8251C40.0752 50.7844 36.1934 46.0123 35.995 43.9976C35.934 43.3718 35.8475 42.6799 36.2443 42.1915C36.4834 41.8862 36.8599 41.7133 37.2211 41.5657C38.0097 41.2299 39.1239 40.711 42.7106 40.5126C44.1657 40.4312 45.2697 40.0547 47.0656 40.3244C47.0656 40.3244 47.0656 40.3142 47.0757 40.3142C48.0831 40.1972 48.7699 40.4719 49.5737 41.1078C49.7925 41.2757 50.0214 41.4538 50.2402 41.642C50.3318 41.5606 50.4285 41.4742 50.5302 41.4131C49.645 40.7772 48.8666 40.0954 47.8287 39.6782C46.7349 39.2407 45.6461 39.1797 44.4913 39.0016C44.4607 39.0016 44.4709 38.9507 44.4913 38.9507C46.5517 38.3249 49.5992 39.4493 50.8049 41.2554C51.7003 40.7568 52.8552 40.6703 53.6845 41.3266C53.7048 41.3368 53.715 41.3571 53.7252 41.3775C54.295 40.6042 55.338 40.0191 56.0655 39.6223C56.1571 39.5714 56.2639 39.6935 56.1774 39.78C55.2159 40.6754 53.5115 41.5199 53.6794 43.1073ZM41.688 44.2469C41.5761 44.0892 41.3319 43.9671 41.1385 44.0485C41.0978 44.0688 41.0673 44.0892 41.0266 44.1095C41.0063 44.0993 40.9961 44.0892 40.9757 44.0892C40.8638 44.0586 40.7672 44.0586 40.6756 44.079C40.2482 44.0281 39.8209 44.2062 39.6021 44.6437C39.3121 45.2491 39.6123 46.053 40.2177 46.3328C40.7265 46.5719 41.3421 46.3938 41.6931 45.9665C42.1255 45.4679 42.0645 44.7658 41.688 44.2469ZM55.2057 47.6912C55.1039 47.3757 55.2464 47.1061 54.8292 46.5515C54.6308 46.2819 54.3611 46.0631 54.1627 45.7782C53.7862 45.244 53.4454 44.6284 53.364 43.9823C53.3538 43.9416 53.4149 43.9314 53.4352 43.962C53.4454 43.9721 53.4556 43.9925 53.4556 44.0027C53.3436 43.7737 53.2266 43.5448 53.135 43.2904C53.135 43.2802 53.135 43.2802 53.135 43.2701C50.9626 43.5957 51.044 45.8189 50.347 47.3808C49.94 48.2915 49.3295 49.1055 48.5918 49.7618C47.3759 50.8455 45.7937 51.5374 44.1504 51.8172C42.2375 52.504 40.177 52.7889 38.3913 51.5984C37.6129 51.0744 37.0278 50.3978 36.5801 49.6244C36.1629 49.1767 35.7457 48.7494 35.3235 48.4441C35.2319 48.8511 35.0131 49.1309 34.718 49.4464C34.8096 49.3853 34.8961 49.309 34.9877 49.248C35.0589 49.2073 35.1454 49.2073 35.2064 49.2378C35.237 49.1869 35.3184 49.1869 35.3336 49.248C35.415 49.5837 35.3845 49.9043 35.3031 50.2197C35.3031 50.357 35.2828 50.4792 35.2522 50.6165C35.354 50.4792 35.4812 50.3672 35.6287 50.2909C35.6694 50.1027 35.7101 49.9246 35.7559 49.7465C35.7763 49.6651 35.9136 49.6957 35.8933 49.7872C35.8119 50.1637 35.8119 50.53 35.8424 50.8963C35.8627 50.8862 35.8831 50.876 35.9034 50.9065C36.809 52.1886 36.9871 53.7657 36.4631 55.2716C36.4224 55.3887 36.2138 55.4294 36.1934 55.2716C35.995 53.8929 36.3206 52.4023 35.8627 51.0642C35.9238 51.6595 36.051 52.2344 36.0612 52.85C36.0612 52.9873 35.8831 53.028 35.8119 52.911C35.6999 52.7329 35.6338 52.5549 35.5727 52.3666C35.5626 52.4582 35.5422 52.5651 35.5015 52.6465C35.6135 53.0331 35.7712 53.4605 35.6135 53.7759C35.5219 53.9641 35.2624 54.0913 35.2166 54.2897C35.1556 54.5594 35.5066 55.0325 35.6033 55.3022C35.6643 55.5006 35.3947 55.7194 35.2522 55.5718C35.1708 55.4802 35.0233 55.1241 35.0233 55.1241C34.8656 54.7883 34.6926 54.4373 34.774 54.0913C33.8786 54.478 33.8074 53.5368 33.2579 53.2264C33.1765 53.1959 33.0391 52.967 32.9984 52.8805C32.6118 54.9562 32.7797 57.0777 33.5072 59.0924C33.5581 59.2298 33.3698 59.3112 33.2884 59.2196C30.938 56.976 32.042 53.0077 32.8916 49.655C33.0595 47.7675 33.1714 45.824 33.3495 43.8908C33.2477 43.8602 33.1612 43.7839 33.1409 43.6618C32.4439 40.0496 33.4004 36.3866 34.4738 32.9525C34.4942 32.8813 34.601 32.9118 34.5756 32.983C34.0363 35.2673 33.9498 37.5364 33.9091 39.8207C33.9803 39.434 34.0668 39.0576 34.1584 38.6709C34.9165 35.6031 36.9871 32.7439 38.7881 30.2052C40.8791 27.2697 43.7281 24.7869 46.2566 22.1058C46.2872 22.0346 46.3279 21.9481 46.4042 21.8768C46.6535 21.6072 46.9028 21.3426 47.1826 21.0934C49.1464 18.8803 50.8202 16.4993 51.6342 13.6197C39.6835 15.6344 34.4331 29.3505 29.4473 38.849C29.3761 38.9965 29.1268 38.8897 29.1777 38.732C30.6734 34.3465 33.1918 30.2052 35.644 26.2979C37.8672 22.757 40.0549 19.2415 43.3516 16.5909C46.2109 14.2964 48.7292 13.8537 52.0768 12.9685C54.6053 12.302 54.1169 9.67176 53.3894 7.45867C52.7535 6.96009 52.2549 6.32923 51.5274 5.92222C50.693 5.45417 48.9581 4.84875 48.0526 5.33715C48.0119 5.3575 47.9712 5.30663 48.0017 5.2761C49.4873 4.05509 51.6291 4.89962 52.9417 6.2173C52.9214 6.16643 52.901 6.10029 52.8807 6.04941C52.8705 6.01889 52.9112 5.99854 52.9315 6.02906C52.9926 6.14608 53.0435 6.26818 53.1096 6.39537C53.3894 6.69554 53.6184 7.02114 53.7964 7.34674C53.8473 7.45358 53.7862 7.57568 53.6947 7.61638C54.4324 9.25458 54.9818 10.9487 54.4527 12.124C55.6279 13.3959 57.0016 14.5965 58.3193 15.8379C58.131 14.8153 57.9682 13.7723 57.7902 12.7294C57.6223 12.4598 57.4798 12.1748 57.3628 11.8747C57.3221 11.7475 57.49 11.6661 57.5714 11.7475C57.5917 11.7678 57.6121 11.778 57.6223 11.7984C57.4035 10.5774 57.1542 9.36651 56.8032 8.19637C55.6076 4.23824 51.8123 0.17836 47.3403 1.17044C48.7648 2.20321 49.2736 3.93807 47.7371 5.36768C46.394 6.59887 43.6315 7.0364 41.978 7.71814C39.1086 8.89845 36.3817 10.3484 34.7384 13.1059C34.6366 13.2839 34.3619 13.1262 34.4586 12.938C35.7559 10.5875 37.7757 9.17827 40.1668 8.05392C41.9576 7.20938 48.0068 6.01889 48.2764 3.7651C48.5155 1.81147 45.5647 0.966933 44.1911 1.01781C42.7971 1.06868 41.3726 1.66393 40.2177 2.38636C38.5897 3.40897 37.1346 4.75717 35.8984 6.258C33.2172 9.51405 31.8029 13.5332 30.2817 17.415C30.2512 17.5066 30.1036 17.4659 30.1341 17.3743C31.3755 13.2738 33.0595 9.00529 35.7203 5.58136C31.2381 5.99854 26.5983 8.88828 25.1229 13.2941C24.6243 14.7644 24.5938 16.2805 23.7594 17.6287C22.6351 19.4653 21.587 20.8339 21.2207 23.0673C21.18 23.3064 20.8035 23.2861 20.7527 23.0673C20.3457 21.2205 20.712 19.8418 21.9279 18.402C21.9788 18.341 22.0958 18.4224 22.0398 18.4936C21.3632 19.2567 21.0223 20.1216 21.0121 21.1035C20.8341 22.1872 20.8341 22.3449 21.0121 21.6021C21.2309 21.2155 21.3021 20.6609 21.4904 20.2539C21.9686 19.1906 22.7572 18.3969 23.3524 17.415C23.968 16.4026 24.2478 15.3088 24.5378 14.2099C21.4293 16.5502 18.7329 19.4602 19.6283 23.6778C20.0506 25.6416 20.6916 27.2086 20.4016 29.2538C20.1829 30.8004 19.5825 32.2809 19.496 33.8479C19.3943 35.6845 19.9539 37.4295 20.6102 39.1084C21.7651 42.105 23.1693 45.0609 24.7057 47.8794C24.9041 46.3023 25.0059 44.7251 24.7362 43.1938C24.7261 43.1429 24.7973 43.1225 24.8075 43.1734C25.7843 46.1395 24.7362 48.8817 24.7973 51.9189C24.8583 54.7171 25.1839 56.396 27.4683 58.4005C28.1958 59.0263 29.02 59.5706 29.8085 60.1354C29.0403 58.2784 28.3026 56.3858 27.509 54.539C27.4886 54.4983 27.5395 54.4678 27.57 54.5085C28.4552 55.9483 29.2336 57.4644 29.9306 58.9957C30.6785 60.6543 31.3348 63.3812 33.6039 63.4219C33.96 63.4321 33.96 63.9561 33.6039 63.9765C32.1488 64.0579 31.3246 63.6203 30.7243 62.2874C30.5564 61.9109 30.4038 61.5344 30.2359 61.158C30.1647 61.1681 30.0884 61.1681 30.0171 61.1173C28.1856 59.825 25.0771 58.3293 24.4666 56.0043C23.8408 53.6233 24.2478 51.1711 24.5785 48.729C24.4411 48.7596 24.3089 48.7087 24.2275 48.5611C22.4265 45.3051 20.6916 41.8201 19.5164 38.2792C18.331 34.7179 19.4655 32.1537 19.7453 28.6026C20.015 25.2499 17.9036 22.4212 19.4859 19.155C20.5339 16.9826 22.5333 15.2528 24.5836 14.0522C24.8939 12.8311 25.2297 11.6203 26.0081 10.5112C28.3586 7.17885 32.2557 5.27102 36.2392 4.96576C36.4071 4.76735 36.5597 4.55876 36.7378 4.37052C39.0984 1.78094 43.1634 -0.956168 46.7552 0.849919C46.857 0.900795 46.9536 0.956758 47.0452 1.01781C47.035 0.956758 47.0452 0.880444 47.1164 0.819394C49.4873 -1.19528 52.2142 0.900795 54.0966 2.85442C59.6929 4.12631 64.3938 6.89395 66.6374 12.4598C69.0795 18.5241 68.1027 25.5094 65.9201 31.5025C65.8997 31.5432 65.8794 31.5737 65.859 31.6195C66.0168 31.9553 66.1999 32.286 66.4543 32.6421C66.8511 33.217 67.0037 33.7614 67.1716 34.4279C67.3802 35.2215 68.0976 37.048 67.4922 37.7908C67.4006 37.9179 67.1615 37.8416 67.1411 37.6992C66.8918 36.3001 66.9834 34.8603 66.3525 33.5223C65.6962 32.1537 64.2209 31.0599 64.638 29.4115C64.638 25.1431 65.0756 21.0934 62.4656 17.3642C61.3922 15.8379 59.525 14.8051 58.3142 13.3959C58.3956 14.2607 58.4515 15.1409 58.5126 15.9956C59.9371 17.354 61.3006 18.7632 62.2469 20.4014C63.8393 23.1386 63.9512 26.069 63.3916 29.0656C63.5493 29.5896 63.6816 30.1187 63.7579 30.6834C63.7884 30.9022 63.4781 31.1006 63.361 30.8513C62.6335 29.2945 62.1044 27.636 61.148 26.1962C60.2729 24.8683 59.0468 23.922 57.8309 22.93C56.3351 21.709 54.9208 20.3404 53.0791 19.6841C52.0819 19.328 51.4154 19.2364 50.6574 18.4733C50.5556 18.3664 50.6879 18.2036 50.8151 18.2748C52.4075 19.1499 54.2136 19.1601 55.7755 20.1522C56.9812 20.9255 58.0649 21.9481 59.1536 22.8638C61.0767 24.502 62.5877 26.5065 63.3458 28.8773C63.9156 24.7768 62.3283 20.9356 59.4487 18.0408C57.6579 16.2449 55.5364 14.7542 54.2289 12.5513C53.8219 13.0499 53.1249 13.4162 52.0463 13.5739C52.0361 13.5739 52.0158 13.5841 52.0056 13.5841C52.026 13.6146 52.0463 13.6452 52.0463 13.6909C52.1379 16.1737 50.8304 18.3461 49.0802 20.3302C49.9757 20.3506 50.8151 20.8186 51.7105 20.9763C51.8682 20.9153 52.0107 20.9458 52.1277 21.017C52.2752 21.0272 52.4177 21.017 52.5652 21.017C52.7535 20.8797 53.0028 20.9 53.191 21.017C53.3589 21.0272 53.5115 21.0577 53.6794 21.1239C53.7608 21.1544 53.8371 21.2409 53.8778 21.3325C53.9287 21.3019 53.9796 21.2714 54.0355 21.2511C54.3917 21.0934 54.7936 21.3986 54.7427 21.7191C54.931 21.826 55.0632 21.9481 55.2718 22.3042C56.1978 22.6094 57.2153 23.861 57.8309 24.3392C58.828 25.1329 60.0643 25.7383 60.741 26.7813C60.7613 26.7813 60.7715 26.7914 60.7918 26.7914C61.1123 26.8728 61.1785 27.1883 61.0615 27.4172C61.0716 27.4477 61.0818 27.4783 61.092 27.4986C61.1123 27.5393 61.1429 27.58 61.1632 27.6258C61.1734 27.636 61.1734 27.636 61.1734 27.6461C61.1836 27.6563 61.1836 27.6665 61.1937 27.6767C61.443 27.6461 61.7229 27.7682 61.8399 27.9921C62.369 28.9638 62.369 30.1747 62.6386 31.2481C63.0558 32.927 63.473 34.611 63.8952 36.2899C63.9156 36.2797 63.9359 36.2797 63.9563 36.2797C64.0173 36.5596 64.1038 36.8546 64.1649 37.1345C64.2056 37.3125 64.1242 37.4804 63.9868 37.5618C64.3837 37.572 64.7754 37.5923 65.162 37.6229C65.2027 37.6229 65.2027 37.6839 65.162 37.6839C63.3407 37.8111 61.5346 38.0095 59.7234 38.1723C59.7845 38.1723 59.8354 38.1621 59.9015 38.1621C59.9219 38.1621 59.9219 38.1927 59.9015 38.1927C58.9043 38.33 57.8614 38.4318 56.8948 38.6913C55.5822 39.0372 54.7122 39.9937 53.6591 40.7772C53.5777 40.8382 53.4606 40.7161 53.5115 40.6296C53.771 40.2023 54.0712 39.8563 54.3968 39.5765C54.3052 39.6274 54.2085 39.6833 54.1169 39.7444C53.9592 39.8512 53.7964 39.6172 53.9185 39.4951C55.0429 38.386 56.7167 37.6992 58.2938 37.8976C58.3447 37.9078 58.3651 37.979 58.304 37.9892C58.2531 37.9993 58.2023 38.0197 58.1361 38.04C59.0926 37.8213 60.0897 37.6839 61.1123 37.6127C60.802 37.3227 60.4459 37.0887 60.0541 36.936C59.9931 36.9767 59.9168 36.9869 59.8252 36.9767C58.6194 36.7987 57.4951 36.8496 56.3097 37.1243C56.1978 37.1446 56.1113 37.1141 56.0502 37.0632C55.979 37.0734 55.9027 37.0531 55.8518 37.0225C55.6839 37.2006 55.5313 37.3787 55.4346 37.4702C55.2871 37.6178 55.0683 37.5415 54.9971 37.3888C54.7885 37.6076 54.5799 37.8365 54.3713 38.0553C54.234 38.2029 53.9847 38.0553 54.0406 37.8671C54.2696 37.0938 54.5901 36.4985 55.2566 36.0305C55.2871 36.0101 55.338 36.0508 55.3176 36.0915C55.1294 36.3408 54.9615 36.5799 54.819 36.8445C55.1701 36.4375 55.5465 36.061 55.9841 35.715C56.1723 35.5573 56.3911 35.6845 56.4216 35.8626C56.6505 35.7456 56.8795 35.6947 57.0983 35.7557C57.2 35.7863 57.2458 35.8473 57.2763 35.9338C58.0649 35.6285 58.8026 35.5878 59.6573 35.8422C59.8659 35.9033 59.9066 36.0915 59.8354 36.239C60.3238 36.3764 60.7308 36.5647 61.092 36.8343C61.0106 36.5087 60.9902 36.1576 60.9648 35.8015C61.092 35.8727 61.2243 35.9389 61.3515 35.9999C61.3515 35.9796 61.3413 35.9694 61.3413 35.9491C60.8427 34.5093 60.3848 33.0491 59.9269 31.5941C58.9094 30.3324 57.8156 29.2996 56.442 28.4296C56.3148 28.3482 56.2639 28.221 56.2537 28.0837C56.152 27.9768 56.096 27.8242 56.1265 27.6868C56.0553 27.7479 55.979 27.8039 55.9078 27.8649C55.8671 27.9056 55.8162 27.9158 55.7704 27.9158C55.4499 28.1447 54.8648 27.8954 55.0225 27.4172C55.2108 26.8321 55.5109 26.3234 55.9281 25.8706C55.689 26.069 55.3481 26.359 55.0938 26.6235C54.992 26.9034 54.9055 27.1781 54.8343 27.407C54.7427 27.7326 54.239 27.8344 54.0762 27.4986C53.9847 27.3002 53.9643 27.1018 54.005 26.9034C53.944 27.0204 53.8676 27.1323 53.8168 27.2595C53.6387 27.6156 53.1401 27.3511 53.2012 27C53.2724 26.6439 53.3691 26.3132 53.4708 25.9876C53.1147 26.4048 52.7636 26.822 52.4228 27.2595C52.1633 27.5953 51.6953 27.1679 51.8631 26.8321C52.4431 25.6722 53.0587 24.4512 53.8931 23.4387C52.6873 24.4919 51.624 25.6722 50.6981 27.0102C50.4793 27.3256 50.1181 27.2086 50.0113 26.939C49.7722 27.0763 49.5229 27.1781 49.243 27.2442C49.0039 27.2951 48.775 27.1628 48.6834 26.9746C48.5461 27.1018 48.3629 27.1221 48.195 27.0662C47.9762 27.3918 47.5082 27.2646 47.3861 26.9186C47.3657 26.9898 47.3352 27.056 47.3047 27.117C47.1368 27.6309 46.3991 27.5342 46.3787 26.9898C46.3584 26.3844 46.45 25.8401 46.628 25.3415C46.3686 25.6976 46.1091 26.0741 45.87 26.4709C45.7682 26.6897 45.6919 26.8067 45.3816 27.2442C45.234 27.4528 44.8728 27.58 44.6846 27.3358C44.6642 27.3155 44.6541 27.2951 44.6439 27.2747C44.3641 27.4732 43.8858 27.346 43.9062 26.939C43.6874 27.2086 43.4585 27.4833 43.199 27.753C42.8581 28.1193 42.3341 27.6461 42.5427 27.2391C42.7717 26.7914 43.0311 26.3539 43.3109 25.9215C43.021 26.2114 42.7411 26.5065 42.4918 26.7965C40.6603 28.8824 38.8949 31.1922 37.4195 33.624C36.7022 35.481 36.3613 36.819 35.2573 37.9993C35.2268 38.1062 35.1861 38.2079 35.1556 38.3148C35.8119 37.7908 36.4122 37.0836 36.809 36.3611C36.8192 36.351 36.8396 36.3611 36.8396 36.3713C36.6208 37.1955 36.3206 37.9179 35.705 38.5335C35.5778 38.6607 35.4456 38.7625 35.3082 38.8693C35.3489 38.8591 35.3794 38.8388 35.4201 38.8286C35.7305 38.737 35.8882 39.1644 35.6287 39.3272C35.3285 39.5256 35.0131 39.7139 34.7129 39.9123C34.6926 40.0038 34.6723 40.1005 34.6621 40.1921C34.9928 40.0649 35.4405 39.953 35.6694 39.7444C35.7203 39.6935 35.7966 39.7647 35.7406 39.8156C35.5727 40.0038 35.3896 40.2328 35.1708 40.3702C34.9724 40.4872 34.7638 40.5686 34.5654 40.6754C34.5349 40.8535 34.5044 41.0417 34.4738 41.23H34.484C34.6315 41.0417 34.8503 40.8738 35.1607 40.7161C37.3025 39.663 40.8282 39.2865 43.2092 39.3374C43.2194 39.3374 43.2295 39.3577 43.2092 39.3577C41.454 39.836 39.6021 40.0038 37.8113 40.4007C36.7836 40.6296 34.9215 40.7161 34.7435 42.1762C34.6926 42.5832 35.0538 43.3871 35.1708 43.7737C36.2189 47.2689 38.2285 50.6623 41.9526 51.4967C45.7072 50.9218 48.7343 50.0772 50.2402 46.1751C50.866 44.5674 51.2374 42.5527 53.308 43.1581C53.3894 43.1785 53.3691 43.2955 53.2877 43.3057C53.2775 43.3057 53.2775 43.3057 53.2673 43.3057C54.3408 45.6002 56.2435 47.7115 58.5177 48.8257C59.754 49.4311 61.3464 49.9093 62.7302 49.8381C64.5312 49.7313 65.7369 48.9834 66.7239 47.7319C67.5888 46.0174 68.1688 44.5063 68.3163 42.5425C68.3672 41.8201 68.4944 40.9349 68.3774 40.2226C68.179 39.0219 67.253 38.3453 66.2355 37.8518C66.2152 37.8416 66.2253 37.8111 66.2457 37.8111C68.6979 38.0197 68.876 38.6963 68.937 41.0061C68.9981 43.0004 68.8251 45.244 67.8432 47.04C67.8432 47.0807 67.833 47.1315 67.8025 47.1875C67.5023 47.6861 67.1665 48.1287 66.8257 48.5153C66.3983 50.6674 66.3373 53.0789 65.5029 55.0631C65.3757 56.6504 65.4012 57.4644 64.6177 59.4282C64.4701 59.8047 64.0021 59.4994 64.1496 59.1331C64.7754 57.5661 64.7754 56.9404 64.9077 55.3327C64.9077 55.3123 64.8975 55.3022 64.9077 55.2716C64.9077 55.2615 64.9077 55.2615 64.9178 55.2513C64.928 54.8952 64.9382 54.5339 64.9178 54.1422C64.8771 53.1806 64.8161 52.2649 64.8364 51.3339C64.7754 51.3542 64.7093 51.3746 64.6482 51.3542C63.7223 51.1863 62.8676 50.9065 61.9976 50.5606C61.9467 50.5402 61.8958 50.4995 61.8704 50.4435C61.8602 50.4435 61.85 50.4435 61.85 50.4435C61.8195 50.4435 61.7992 50.413 61.7992 50.3825C61.2192 50.3113 60.5934 50.1535 59.9575 49.9348C58.1463 49.309 56.6912 48.3475 55.516 47.0857C55.5262 47.2536 55.5058 47.4622 55.5364 47.6403C55.5771 47.8591 55.7755 47.9303 55.9536 48.0778C56.0553 48.1592 56.1113 48.2457 56.1825 48.3169C56.442 48.5662 56.5488 49.0699 56.5691 49.3904C56.5895 49.9348 56.4776 50.4639 56.0502 50.8302C56.0095 50.8709 55.9485 50.82 55.9688 50.7691C56.1774 50.3723 56.3555 49.9246 56.2995 49.4667C56.2792 49.248 56.1418 49.019 56.0706 48.8104C55.9993 48.6222 55.9993 48.6222 55.8925 48.5408C55.7246 48.3729 55.7043 48.3526 55.5516 48.1745C55.5313 48.144 55.3736 47.9659 55.3532 47.9455L55.2057 47.6912ZM65.3859 53.4859C65.7726 51.8986 66.0524 50.2807 66.551 48.7443C66.2203 49.0699 65.8845 49.3599 65.5233 49.5888C65.3147 50.9167 65.3554 52.2089 65.3859 53.4859ZM33.9549 46.928C33.9651 47.045 33.9753 47.1671 33.9753 47.2842C34.1024 47.1468 34.2245 47.0145 34.3416 46.8772C34.3517 46.8466 34.3517 46.8059 34.3619 46.7703C34.3721 46.6024 34.4993 46.5108 34.6214 46.4905C34.6824 46.3989 34.7333 46.3023 34.7791 46.2005C34.4738 46.4193 34.2042 46.6686 33.9549 46.928ZM34.2652 42.4204C34.194 43.036 34.1279 43.6618 34.077 44.2876C34.2347 44.0688 34.3873 43.85 34.5654 43.6313C34.5654 43.6211 34.5654 43.6109 34.5552 43.6109C34.4433 43.1683 34.3263 42.7817 34.2652 42.4204ZM57.9428 38.0858C57.5358 38.2028 57.144 38.325 56.7574 38.4623C57.144 38.3809 57.5256 38.3249 57.9326 38.2842C57.8716 38.2334 57.8716 38.1265 57.9428 38.0858ZM54.6664 23.4845C54.646 23.4743 54.6155 23.4743 54.5952 23.4642C54.5138 23.5914 54.4171 23.7135 54.3357 23.8406C54.4375 23.7135 54.5545 23.5964 54.6664 23.4845ZM56.2486 24.6597C56.2385 24.6597 56.2385 24.6496 56.2283 24.6496C56.2079 24.6699 56.1876 24.6801 56.1672 24.7004C56.1978 24.6852 56.2283 24.6699 56.2486 24.6597ZM57.9428 26.0385C57.7138 25.8706 57.5053 25.723 57.3272 25.5908C57.1288 25.7688 56.9405 25.9672 56.7879 26.125C56.5691 26.3539 56.3809 26.6134 56.2385 26.8983C56.7472 26.4557 57.3068 26.1758 57.9428 26.0385ZM60.6036 29.8084H60.5934C60.5934 29.8185 60.5934 29.8287 60.6036 29.8389C60.6036 29.8389 60.6036 29.8389 60.6138 29.8389C60.6036 29.8287 60.6036 29.8185 60.6036 29.8084ZM54.4578 3.16985C54.6664 3.39879 54.8648 3.61756 55.0531 3.82615C57.1542 6.23765 57.8614 9.24441 58.2023 12.3224C60.3441 14.3574 62.7862 16.016 64.0784 18.8039C65.5538 21.9989 65.7726 25.9774 65.0247 29.3912C65.162 29.7778 65.2841 30.1441 65.4012 30.485C66.8766 24.9548 68.2807 19.2517 66.4085 13.6146C65.3808 10.5163 63.4679 7.62147 60.6697 5.87135C58.7415 4.67068 56.5183 4.08561 54.4578 3.16985ZM54.9767 49.1716C54.8495 49.1716 54.7681 49.253 54.6969 49.3497C54.6562 49.3599 54.6257 49.3701 54.6155 49.4209C54.585 49.5278 54.5748 49.6194 54.5646 49.7262C54.4375 49.9551 54.3052 50.1942 54.3255 50.4384C54.3357 50.4893 54.3764 50.5097 54.4171 50.4792C54.585 50.3418 54.6562 50.1332 54.7071 49.9246C54.7376 50.0721 54.8088 50.2299 54.9259 50.3418C55.282 50.7284 55.923 50.2248 55.6432 49.7872C55.5109 49.5685 55.282 49.1615 54.9767 49.1716ZM54.6359 43.9721C54.4578 43.2955 54.5443 42.4459 54.8038 41.8303C54.8038 41.8303 56.0807 40.1921 57.0728 39.6681C58.0598 39.144 60.8071 38.5285 62.8014 38.4878C64.8059 38.4369 66.6171 39.5307 67.1666 40.1565C67.716 40.7822 67.4362 41.347 67.3853 42.6748C67.3344 44.0027 66.729 44.8777 66.2304 46.348C65.742 47.8184 64.5261 48.7392 62.5369 48.841C60.5527 48.9478 58.9298 48.1287 57.5968 47.2943C56.269 46.4701 54.8139 44.6539 54.6359 43.9721ZM63.0914 45.5188C63.3 43.9925 63.0914 43.1073 63.3 41.581C63.3712 41.0163 62.6946 41.2045 62.6234 41.7692C62.4148 43.2955 62.603 44.4402 62.3944 45.9665C62.3079 46.5414 63.0151 46.0835 63.0914 45.5188ZM55.5211 43.5041C55.4906 44.079 55.7704 44.7455 56.2995 45.0049C57.1186 45.4119 57.8919 44.7658 57.9224 43.9213C57.953 43.209 57.373 42.105 56.5183 42.3645C56.4572 42.3848 56.4063 42.4154 56.3504 42.4459C56.213 42.4561 56.0807 42.4968 55.9536 42.5832C55.6636 42.7969 55.5415 43.148 55.5211 43.5041ZM33.3698 85.2069C33.1612 84.5913 32.5151 84.4845 31.9453 84.3624C31.1567 84.1945 30.3834 84.0469 29.5847 84.2352C29.544 84.2453 29.5338 84.3064 29.5745 84.3267C30.7192 84.8406 32.0165 84.9423 33.1918 85.3697C33.2986 85.4257 33.4004 85.3137 33.3698 85.2069ZM49.7467 85.0288C50.1639 85.4155 50.5353 85.8021 50.9932 86.1379C51.3595 86.3974 51.8479 86.9214 52.3159 86.8909C52.4177 86.8807 52.4838 86.7739 52.4279 86.6823C52.2295 86.2855 51.6088 86.1074 51.2425 85.8785C50.7541 85.5783 50.2351 85.3137 49.7671 85.0034C49.7467 84.9881 49.7264 85.0187 49.7467 85.0288ZM51.1712 103.405C46.1803 95.7636 40.7315 85.4409 31.0092 83.4771C30.9583 83.4669 30.938 83.5382 30.9888 83.5585C41.1691 86.3262 44.1962 96.8167 50.8711 103.634C51.0186 103.777 51.2883 103.583 51.1712 103.405ZM62.0688 75.9373C62.257 75.8458 62.1604 75.5405 61.9671 75.5405C58.1921 75.5609 60.2831 83.2126 56.4369 83.4975C56.2995 83.5077 56.2792 83.6755 56.4063 83.7264C57.7495 84.2301 58.6296 82.8208 59.1333 81.7524C60.0338 79.809 59.9676 77.0159 62.0688 75.9373ZM55.1548 76.7717C55.5516 75.4744 56.152 74.2127 56.3097 72.8441C56.33 72.6355 55.9993 72.549 55.9128 72.7373C55.3532 73.9786 55.226 75.3777 54.8953 76.6954C54.8445 76.8684 55.1039 76.9396 55.1548 76.7717ZM51.5986 79.3511C51.4511 79.0815 50.9932 79.2697 51.1 79.5597C52.1277 82.4952 52.3566 85.5223 54.9666 87.5574C55.0378 87.6184 55.1446 87.5268 55.0785 87.4403C53.9033 86.0921 53.0842 84.6727 52.6466 82.9328C52.3363 81.7219 52.1837 80.4805 51.5986 79.3511ZM62.257 61.8957C60.5324 60.9239 58.7314 59.6826 57.139 58.6091C56.9304 58.4615 56.7218 58.3191 56.5691 58.1512C56.5691 58.1614 56.5691 58.1716 56.559 58.1817C56.5386 58.2631 56.4572 58.3598 56.3606 58.3801C55.7348 58.487 55.0836 58.2428 54.4476 58.2987C54.0101 58.3293 53.4912 58.5786 53.0842 58.3801C53.0129 58.4208 52.9264 58.4615 52.845 58.5073C52.4584 58.6651 52.1888 58.5073 51.8784 58.2682C51.6189 58.0698 51.3696 57.7442 51.3289 57.4033C51.3188 57.2863 51.329 57.154 51.3697 57.037C51.4307 56.8691 51.5681 56.8081 51.6495 56.6605C51.7003 56.569 51.8275 56.7114 51.7207 56.7521C51.5019 56.8233 51.5935 57.266 51.6596 57.3982C51.7512 57.6068 51.9496 57.734 52.1379 57.846C52.3261 57.963 52.4787 58.0545 52.6975 57.9833C52.7687 57.963 52.8552 57.9223 52.9366 57.8816C52.957 57.8409 52.9875 57.8103 53.0282 57.7747C52.7891 57.617 52.6008 57.3779 52.4686 57.1184C52.4482 57.0879 52.4889 57.0574 52.5194 57.0777C52.9875 57.5712 53.3742 57.5763 54.005 57.444C54.2034 57.4033 54.4018 57.3728 54.5748 57.2863C54.7122 57.2253 54.7732 57.1388 54.9259 57.149C54.9462 57.149 54.9462 57.1693 54.9666 57.1693C55.165 57.2405 55.3634 57.3168 55.572 57.3474C55.3634 57.0218 55.3227 56.6707 55.7399 56.3756C56.1164 56.106 56.5183 56.3349 56.8846 56.513C57.0932 56.6148 57.2916 56.7216 57.49 56.8284C57.49 56.8183 57.49 56.8183 57.5002 56.8081C57.6681 56.6097 57.9784 56.4113 57.8665 56.0958C57.8563 56.0755 57.897 56.0653 57.897 56.0857C58.0089 56.3044 58.0649 56.4113 58.0344 56.6707C58.014 56.8183 57.953 56.9505 57.836 57.0472C57.8767 57.0676 57.9174 57.0981 57.9479 57.1184C57.9581 57.1083 57.9581 57.0981 57.9682 57.0879C58.248 56.8183 58.4261 56.4621 58.3956 56.0653C58.3854 55.8771 58.2938 55.7397 58.248 55.5769C58.2277 55.4853 58.2073 55.4955 58.2379 55.3887C58.2379 55.3785 58.248 55.3785 58.2582 55.3683C58.1107 55.2767 57.9886 55.1088 57.9072 54.9511C57.5307 55.2106 57.139 55.0427 56.793 54.8239C56.5335 54.9053 56.2334 54.885 55.9841 54.7629C55.9637 54.7832 55.9536 54.8036 55.9332 54.8138C56.0909 54.8341 56.2435 54.885 56.3606 54.941C56.7014 55.0885 56.9863 55.3378 57.1186 55.6939C57.1695 55.8313 56.9812 55.9025 56.8897 55.8313C56.6607 55.6329 56.4318 55.4344 56.152 55.2971C55.9841 55.2157 55.7755 55.1902 55.6127 55.1088C55.455 55.2767 55.2718 55.3683 55.0531 55.4141C55.2616 55.7702 55.2922 56.3349 55.2209 56.6453C55.2108 56.6962 55.1192 56.7165 55.0836 56.6656C54.9716 56.4062 54.9259 56.1213 54.8139 55.8618C54.7529 55.7041 54.6562 55.5718 54.5646 55.4344C54.4629 55.4243 54.3561 55.4039 54.2543 55.3734C54.0355 55.4141 53.8371 55.4548 53.6743 55.643C53.5268 55.8109 53.4047 55.9992 53.1757 56.0297C53.1452 56.0297 53.1045 56.0195 53.1045 55.989C53.0638 55.6736 53.3029 55.4751 53.542 55.3327C53.2317 55.2818 53.0435 55.175 52.6873 55.2818C52.6568 55.292 52.6365 55.2818 52.6161 55.2615C52.5856 55.2818 52.5551 55.3022 52.5245 55.3225C52.3872 55.4497 52.2956 55.6023 52.1175 55.6786C52.087 55.6888 52.0565 55.6888 52.0259 55.699C51.9344 55.7702 51.8072 55.8567 51.7767 55.9788C51.7258 56.1569 51.8174 56.3451 51.7563 56.5232C51.736 56.5842 51.6647 56.6249 51.5986 56.5842C51.5681 56.5639 51.5375 56.5232 51.5172 56.4927C51.5579 56.6911 51.4053 56.8488 51.1967 56.8183C50.8558 56.7674 50.2809 56.5995 50.1232 56.2332C49.996 55.9178 50.2046 55.5667 50.3114 55.2818C50.5098 54.7476 50.7286 54.2592 51.0288 53.781C51.3086 53.3536 51.5477 52.8398 52.0056 52.5905C52.0463 52.5701 52.1073 52.6007 52.087 52.6515C51.9852 52.911 51.8377 53.0789 51.6596 53.2977C51.3696 53.664 51.1611 54.0405 50.9525 54.4576C50.7846 54.8036 50.4539 55.3123 50.4742 55.7092C50.4844 55.9992 50.5149 56.1365 50.8609 56.1874C51.1611 56.2281 51.217 56.1569 51.3697 55.9279C51.3798 55.8465 51.4104 55.7601 51.4409 55.699C51.4612 55.6685 51.4816 55.6379 51.5019 55.6176H51.4918C51.4205 55.5871 51.4205 55.4599 51.5121 55.4599C51.7919 55.4701 52.1277 55.3581 52.3312 55.2004C52.433 55.119 52.5703 55.0732 52.6619 54.9918C52.7128 54.9511 52.7535 54.9002 52.8094 54.8443C52.5805 54.6866 52.3719 54.4678 52.2396 54.3457C52.2193 54.3254 52.2498 54.305 52.2701 54.3152C52.5093 54.5238 52.8857 54.6153 53.2063 54.6153C53.2063 54.5848 53.2063 54.5441 53.2164 54.4882C53.1961 54.4068 53.1757 54.3203 53.1554 54.2287C53.1249 54.0913 53.1249 54.0608 53.1452 53.9489C53.1045 53.8471 53.0638 53.7505 53.0078 53.6589C52.9875 53.6182 53.0485 53.552 53.0791 53.5978C53.3487 53.9336 53.6947 54.5594 54.1373 54.5696C54.3561 54.5696 54.585 54.5187 54.8038 54.5085C55.0327 54.4983 55.0123 54.4576 55.0429 54.2134C55.053 54.0862 55.0632 53.9743 55.0836 53.8471C55.0836 53.837 55.0938 53.8268 55.0938 53.8268C55.1243 53.5775 55.2311 53.3282 55.4143 53.1908C55.4651 53.1603 55.516 53.2112 55.5058 53.2621C55.4651 53.4401 55.3787 53.5978 55.3481 53.7708C55.3278 53.8777 55.3176 53.9794 55.2973 54.0761C55.3176 54.2134 55.338 54.3711 55.338 54.5034C55.4194 54.5136 55.516 54.5238 55.5872 54.4932C55.7246 54.4322 55.8671 54.2236 55.9383 54.1066C56.096 53.8573 56.2181 53.6284 56.4267 53.4198C56.447 53.3994 56.4674 53.4299 56.4572 53.4503C56.1978 53.7199 56.2385 54.1168 56.1571 54.4525C56.3351 54.5034 56.4979 54.5594 56.676 54.4932C56.8948 54.422 57.0423 54.3152 57.144 54.1066C57.1542 54.0862 57.1847 54.0964 57.1746 54.1168C57.1339 54.2643 57.1339 54.4169 57.1033 54.5441C57.3221 54.6713 57.5816 54.7629 57.7902 54.5543C57.9682 54.3864 58.0395 54.1473 58.1565 53.9489C58.1768 53.9184 58.2379 53.9184 58.248 53.959C58.3193 54.249 58.2582 54.5746 58.0598 54.8036C58.1005 54.8341 58.1412 54.8545 58.187 54.885C58.2379 54.9359 58.2887 54.9766 58.3549 55.0122C58.4159 55.1038 58.4668 55.0936 58.4821 54.9918C59.1384 54.7425 58.1717 53.7912 57.9326 53.5724C57.4239 53.084 56.9355 52.6108 56.3606 52.1937C56.3402 52.2038 56.3097 52.214 56.2792 52.2038C55.5211 52.0359 55.0429 52.5294 54.3459 52.5803C53.5471 52.6414 53.0129 51.8833 52.2345 52.5803C52.1938 52.6108 52.143 52.5701 52.1633 52.5294C52.6008 51.8172 53.1198 51.9749 53.8066 52.1123C54.6511 52.27 55.6279 51.3186 56.3555 51.9545C56.3656 51.9545 56.3656 51.9545 56.3758 51.9545C56.9711 52.1631 57.4798 52.5498 57.9174 52.9873C58.1565 53.2264 58.3447 53.4656 58.5431 53.7403C58.711 53.9794 58.9501 54.1676 58.9908 54.4627C59.0315 54.7425 58.9298 55.2767 58.6143 55.4141C58.5533 55.4446 58.4872 55.4446 58.4261 55.4344C58.4566 55.5922 58.6754 55.7499 58.7365 55.8923C58.7975 56.05 58.8382 56.279 58.8382 56.4469C58.8382 56.8335 58.6194 57.154 58.3498 57.4186C58.5075 57.5356 64.3582 61.2292 64.2463 61.4072C64.1344 61.5955 63.5493 61.1885 62.3741 60.466C60.9902 59.6215 59.6471 58.7108 59.464 58.5887C59.2554 58.4514 58.8382 58.1716 58.5279 57.963C58.4872 57.9528 57.8309 57.4746 57.8003 57.4389C57.4798 57.2812 57.3425 57.1591 57.0219 57.0014C57.0118 57.0116 57.0118 57.0218 57.0016 57.0218C56.5946 57.3016 56.5437 57.5763 56.6709 57.8256C56.6912 57.8358 56.7116 57.846 56.7319 57.8663C56.7625 57.8968 56.7726 57.9375 56.7726 57.9935C57.1288 58.431 57.9377 58.777 58.1972 58.9245C58.8128 59.2806 59.4233 59.6317 60.0287 59.998C61.036 60.6034 62.1706 61.1274 63.066 61.8957C63.7935 61.2495 64.7907 60.7255 65.5741 60.2982C65.6352 60.2676 65.7013 60.2982 65.742 60.349C65.8336 60.3287 65.9404 60.3287 66.032 60.349C66.3525 60.4203 66.6018 60.6645 66.8409 60.8934C67.1818 61.2394 67.5379 61.5701 67.8788 61.916C68.5656 62.5927 69.3542 63.3049 70.3208 63.3151C70.4582 63.3151 70.6007 63.3049 70.738 63.3253C70.7278 63.254 70.7278 63.1675 70.738 63.0963C70.1428 63.0047 69.6544 62.7198 69.2525 62.2314C68.9625 61.8855 68.6928 61.5955 68.3265 61.3106C68.0874 61.1325 67.8788 60.9646 67.7567 60.6848C67.7465 60.6746 67.7669 60.6543 67.7771 60.6645L67.7872 60.6746V60.6645C67.7669 59.9726 68.0264 58.9703 68.8607 59.0161C69.6289 59.0466 70.5447 59.4842 71.1603 59.998C71.4198 59.9878 71.6792 59.998 71.9489 60.0489C72.9664 60.2575 73.9992 61.4581 74.8488 62.4807C75.8459 62.669 77.1077 62.3535 77.998 62.9081C78.7153 62.5927 80.1093 62.7809 80.6893 63.2235C81.0556 63.5033 81.0963 64.0375 81.1777 64.4547C81.2846 65.0092 81.3965 65.6045 81.3049 66.154C81.3049 66.1743 81.2845 66.1845 81.2744 66.1946C81.9612 66.0268 82.648 66.7085 82.9177 67.2783C83.5943 68.7181 82.5208 70.7633 80.8063 70.4326C80.6181 70.4021 80.44 70.1528 80.5367 69.9951C80.5672 69.9442 80.5469 69.8781 80.5469 69.8272V69.817C80.5469 69.817 80.5876 69.817 80.5672 69.817C80.4298 69.7967 80.4197 69.7 80.4095 69.5881C80.0127 69.8272 79.2037 69.1607 78.7764 68.8656C78.8578 69.5321 79.2546 70.1477 80.0432 70.1172C80.2111 70.107 80.323 70.2749 80.2823 70.4326C80.4807 70.7124 80.6893 70.9973 80.8877 71.267C80.9793 71.2975 81.137 71.3382 81.1981 71.3382C81.4982 71.3687 81.6152 71.211 81.6763 70.9414C81.7272 70.7022 82.1342 70.7531 82.1138 71.0024C82.063 71.4806 81.8544 71.8062 81.3558 71.8469C81.3253 71.8469 81.3049 71.8469 81.2744 71.8469C81.3049 72.2946 81.3558 72.7373 81.4321 73.1748C81.4423 73.2358 81.4219 73.2918 81.3914 73.3325C82.2461 75.7338 79.7379 77.3212 78.3745 79.0967C78.3643 79.1069 78.3541 79.1069 78.3439 79.1171C77.8148 79.9311 77.2959 80.7451 76.7821 81.5693C75.907 82.9887 75.2354 84.576 74.2993 85.9649C74.5384 86.5195 74.5791 87.1046 74.5079 87.71C74.4469 88.2086 74.3197 88.7021 74.2993 89.2006C74.279 89.6941 74.3807 90.1317 74.2993 90.5997C74.279 90.7269 74.1213 90.7167 74.0602 90.6302C73.9788 90.5132 73.9127 90.3911 73.8618 90.2639C73.8414 90.2741 73.8313 90.2843 73.8007 90.2945C73.6837 90.3352 73.5921 90.1876 73.643 90.0961C73.6837 90.035 73.7244 89.979 73.7702 89.9485C73.699 89.511 73.76 89.0429 73.8109 88.6105C73.9228 87.7863 74.0602 87.0639 74.05 86.2499C73.9432 86.2702 73.8313 86.199 73.872 86.0718C74.5486 83.7213 76.024 81.3403 77.6673 79.285C77.5198 79.2137 77.4078 79.0357 77.4994 78.8373C77.5401 78.7559 77.591 78.6897 77.6469 78.6185C77.4078 78.6694 77.301 78.3031 77.4994 78.1708C77.7894 77.9622 78.0947 77.7231 78.3287 77.4484C78.2676 77.2805 78.349 77.0312 78.5881 77.021C78.5983 77.021 78.5983 77.021 78.6085 77.021C78.5169 76.9142 78.5678 76.7208 78.756 76.6954C78.873 76.6852 78.9748 76.6649 79.0867 76.6343C78.8781 76.614 78.8476 76.3393 79.046 76.268C79.1478 76.2273 79.275 76.1866 79.392 76.1408C79.3106 76.1001 79.2343 76.0595 79.163 75.9831C79.1427 75.9628 79.1427 75.9119 79.1834 75.9017C79.4632 75.861 79.743 75.861 80.0127 75.7644C80.2518 75.683 80.4604 75.4489 80.7198 75.4388C80.9691 75.0521 81.1268 74.6553 81.1167 74.0804C81.1167 73.8006 81.0861 73.592 81.1065 73.3478C81.0861 73.3274 81.0658 73.2969 81.0556 73.2562C80.9081 72.8899 80.8877 72.432 80.7249 72.0861C80.557 71.7503 80.4146 71.6689 80.1856 71.4196C80.0839 71.3026 80.0177 71.1805 79.977 71.0635C79.5599 71.1245 79.1681 70.9668 78.812 70.7379C78.6136 70.6107 78.4253 70.458 78.2167 70.341C78.0946 70.2698 77.9573 70.2342 77.8301 70.1935C77.9318 71.2568 78.0387 72.3354 78.2167 73.3681C78.2371 73.4699 78.0946 73.5157 78.0489 73.4088C77.5401 71.969 77.2196 70.5293 77.011 69.0132C76.7007 66.7085 76.5328 64.994 74.8081 63.2489C74.2027 62.6435 73.6227 61.8906 72.9359 61.3716C72.1778 60.7967 71.5826 60.8171 70.7736 60.7459C69.8986 60.6746 69.4865 60.7764 68.6012 60.3694C68.352 60.2524 68.53 59.8606 68.7895 59.9319C69.4458 60.1201 70.0461 60.0489 70.6515 59.9827C70.3615 59.881 70.0665 59.764 69.7663 59.6571C69.5475 59.5859 69.2474 59.4282 69.0184 59.4282C68.2706 59.418 68.2909 60.0845 68.2604 60.6187C68.2604 60.7255 68.1993 60.7866 68.123 60.8171C68.4893 61.0155 68.8607 61.163 69.1711 61.453C69.7765 62.0279 70.0766 62.613 71.0229 62.5672C71.3129 62.557 71.3434 62.9742 71.1247 63.0658C71.3333 63.6305 71.6843 64.0375 71.9896 64.5819C72.361 65.2585 72.3966 65.9199 73.2055 66.2404C73.3225 66.2913 73.353 66.4389 73.236 66.5101C73.2258 66.5203 73.2157 66.5203 73.2055 66.5304C73.2157 67.7209 73.6837 68.8504 73.643 70.0459C73.6023 71.3534 73.3225 72.5948 73.353 73.9074C73.353 74.0549 73.1648 74.0956 73.0936 73.9786C72.366 72.8695 72.9715 71.5264 73.0732 70.3054C73.0936 70.1172 73.0936 69.9188 73.0834 69.7305C72.7374 69.8475 72.3355 69.8221 72.0761 69.5931C71.8776 69.7102 71.6894 69.7916 71.5164 69.8323C70.7686 70.0103 70.0817 69.7407 69.6747 69.0997C69.6544 69.0793 69.6849 69.0488 69.7154 69.059C70.2344 69.3846 70.972 69.5168 71.5571 69.2981C72.1931 69.059 72.3253 68.3467 72.8901 68.0872C72.9002 68.0771 72.9104 68.077 72.9308 68.077C72.8799 67.5785 72.8595 67.085 72.9511 66.6067C72.5899 66.6474 72.2846 66.3473 72.0761 65.9911C72.0455 66.1082 72.0048 66.2303 71.9285 66.3473C71.3892 67.202 70.7024 67.9651 69.9189 68.6011C69.868 68.6418 69.7968 68.6926 69.7205 68.6926C69.6696 68.6926 69.6289 68.6621 69.5831 68.6418C68.9065 68.2348 68.24 67.8379 67.5634 67.4309C67.4515 67.3597 67.3243 67.2834 67.2632 67.1715C67.2632 67.1613 67.2632 67.1511 67.253 67.1409C67.1818 67.8939 66.8969 68.6418 66.3271 69.3337C66.3068 69.3642 66.2762 69.3642 66.2457 69.3744C66.2355 69.4253 66.2253 69.4812 66.1948 69.5524C66.1643 69.8882 66.1541 70.2291 66.1847 70.5751C66.1948 71.1703 66.2254 71.7554 66.2559 72.3506C67.1411 73.1341 67.9093 74.4721 69.1253 74.6248C69.4051 74.6655 72.6611 74.6044 72.6408 74.6655C72.6815 74.5383 72.8087 74.467 72.9409 74.4976C72.9511 74.4976 72.9613 74.5077 72.9816 74.5077C73.2004 74.5586 73.2818 74.9351 73.0529 75.0318C72.5543 75.2505 71.8675 75.0928 71.3384 75.0928C70.5193 75.0826 69.3847 75.3014 68.6012 75.0521C68.1841 74.9147 67.7364 74.5637 67.3243 74.1211C67.5837 74.467 67.8432 74.7977 68.1434 75.0928C68.8302 75.7695 69.7968 76.2629 70.1937 77.1787C70.2344 77.2601 70.1326 77.367 70.0563 77.2856C68.7335 75.973 66.4289 74.813 66.0015 72.8187C65.9201 72.7881 65.8438 72.7271 65.8336 72.6101C65.6759 71.2415 65.8133 69.9086 65.9913 68.54C66.0117 68.3721 66.2813 68.3009 66.3118 68.4993C66.3118 68.5095 66.3118 68.5197 66.322 68.5298C67.2988 66.7746 66.6527 64.9584 65.4266 63.427C65.2282 63.31 65.0196 63.2083 64.8212 63.0912C64.6635 62.9997 64.5108 62.903 64.343 62.8521C64.3531 62.8928 64.3328 62.9437 64.2819 62.959C63.2949 63.1472 63.7324 64.3173 63.8138 64.9228C63.8851 65.4671 64.0021 66.0166 64.0326 66.561C64.0428 66.7899 63.6917 66.8306 63.6358 66.6118C63.4781 66.0166 62.8014 62.5418 64.114 62.7402C64.2056 62.4706 64.5515 62.3434 64.8517 62.2823C65.1722 62.2213 65.5589 62.1043 65.6301 61.7837C65.7013 61.4276 65.3401 61.1173 65.3401 60.7713C64.4752 61.3869 63.4272 62.0025 62.9388 62.8572C62.4198 63.7628 62.2825 66.6271 63.0405 67.609C63.1219 67.5174 63.1982 67.4208 63.2898 67.3394C63.3712 67.258 63.4882 67.3597 63.4475 67.4564C62.542 69.5881 62.949 71.1398 63.2898 73.302C63.4781 74.4823 63.5391 75.6423 63.3712 76.8277C63.7019 78.7508 64.6177 80.4805 65.1163 82.4036C65.6047 84.3013 65.9608 86.3058 66.0422 88.2696C66.2203 88.29 66.3932 88.29 66.5815 88.2696C66.6425 88.2594 66.6629 88.3408 66.6222 88.3866C65.9354 89.0734 66.5103 88.3968 65.6047 88.7428C64.8873 88.4629 64.2412 88.6919 63.6917 89.4296C63.59 89.974 63.4933 90.5031 63.3916 91.0474C63.3305 91.8614 63.4832 92.6653 63.4933 93.4793C63.5035 94.4001 63.3356 94.8885 62.9744 95.6924C62.5369 96.6336 62.0383 97.2288 62.3486 98.3226C62.6284 99.3046 63.3153 100.19 64.0733 100.851C64.1445 100.851 64.2208 100.882 64.2107 100.968C64.231 100.989 64.2616 101.009 64.2819 101.029C64.521 101.217 64.343 101.497 64.114 101.563C64.0326 101.97 63.9359 102.377 63.8138 102.774C63.8138 102.825 63.8037 102.866 63.7731 102.922C63.5137 103.797 63.1932 104.657 62.9184 105.522V105.532C62.9286 105.583 62.9286 105.649 62.8879 105.7C62.8777 105.71 62.8777 105.71 62.8676 105.72C62.3588 107.409 62.0993 109.164 61.5804 110.848C61.5092 111.077 61.1734 111.036 61.1632 110.797C61.1123 109.765 61.3108 108.722 61.5804 107.709C59.3978 109.892 54.8088 108.773 52.4279 110.736C52.1684 110.955 51.7817 110.599 52.0412 110.35C54.7681 107.78 58.9349 109.276 61.7737 106.977C61.8144 106.829 61.8551 106.697 61.9009 106.559C61.1734 106.997 60.3187 107.226 59.4691 107.343C57.0576 107.669 54.6766 107.511 52.2752 108.116C52.2447 108.126 52.2345 108.076 52.2651 108.065C53.7812 107.46 55.2311 107.104 56.8591 106.992C58.8789 106.844 60.4662 106.595 62.1858 105.674C62.4249 104.921 62.6539 104.138 62.9133 103.38C61.8755 103.827 60.8122 104.153 59.6675 104.28C57.6172 104.509 55.8213 103.675 53.8117 103.746C51.6291 103.832 50.1741 105.771 48.5308 106.961C47.3047 107.847 46.0023 108.6 44.5879 109.134C44.4963 109.164 44.4506 109.032 44.5269 108.986C46.1905 107.923 47.8948 106.941 49.3957 105.644C50.1537 104.987 50.8507 104.005 51.7258 103.471C49.5127 99.5996 47.1215 95.8908 44.4149 92.3346C41.0063 87.8473 37.3432 84.632 32.0725 82.4494C32.0522 82.4393 32.0623 82.4189 32.0827 82.4189C37.155 83.1719 41.1284 87.2216 44.1657 91.0729C47.0859 94.7868 50.3928 98.8518 52.2651 103.232C53.2928 102.886 54.6053 103.222 55.6229 103.38C57.0983 103.609 58.4719 103.66 59.8252 103.487C59.7641 103.405 59.7336 103.308 59.6777 103.197C59.5505 102.927 59.4182 102.662 59.2503 102.423C58.8993 101.925 58.4159 101.421 57.9072 101.095C57.8156 101.034 57.897 100.897 57.9886 100.948C58.594 101.248 59.0926 101.574 59.5301 102.118C59.642 102.266 59.8099 102.464 59.9575 102.683C59.9676 102.683 59.9676 102.683 59.9778 102.683C59.9371 102.611 59.9066 102.545 59.8506 102.474C59.6522 102.148 59.4233 101.859 59.1842 101.569C58.7263 101.045 58.187 100.607 57.6681 100.149C57.6172 100.108 57.6681 100.012 57.7291 100.032C58.1666 100.18 58.5482 100.419 58.9145 100.688C58.6652 100.398 58.4058 100.113 58.1158 99.854C57.5002 99.2995 56.8032 98.7246 56.0146 98.4447C55.4957 98.2565 55.0276 98.2056 54.5799 97.8597C54.5596 97.8393 54.5697 97.7885 54.6003 97.8088C55.2362 98.0581 55.9332 97.9665 56.5742 98.1955C57.3526 98.4753 58.07 98.9789 58.6958 99.5233C59.0926 99.8693 59.5403 100.317 59.9219 100.816C59.8099 100.18 59.754 99.5233 59.7438 98.8314C59.7438 98.75 59.8557 98.7602 59.871 98.8314C59.9829 100.261 60.5374 101.68 61.2141 102.922C61.2751 103.039 61.2446 103.141 61.1937 103.217C61.8806 103.039 62.5674 102.8 63.2644 102.464C63.4018 102.118 63.5544 101.772 63.7223 101.451C62.6386 100.566 61.3922 98.8823 61.3209 97.4425C61.3006 96.9948 61.3922 96.7862 61.5397 96.3996C61.9569 95.2854 62.7963 94.5528 62.837 93.2046C62.8777 91.8258 62.4504 89.8315 63.4272 88.641C63.8037 88.1933 64.2056 88.0763 64.6228 88.0966C64.5922 88.0559 64.5617 88.0051 64.5617 87.9287C64.2616 85.2018 61.0564 83.2838 61.5651 80.4348C61.5753 80.3839 61.6567 80.3839 61.6669 80.4348C62.2723 83.2431 64.9636 85.0492 65.2333 87.9287C65.2435 88.0305 65.2129 88.1068 65.162 88.1577C65.274 88.178 65.391 88.1984 65.5182 88.2289C65.0298 85.7004 64.9026 83.1159 64.0326 80.6586C63.5544 79.3206 62.7098 78.0894 62.837 76.731C62.8472 74.7062 62.5063 72.7932 62.257 70.7887C62.1299 69.7661 62.2265 68.7944 62.7556 67.9804C61.5397 67.5225 62.0383 64.9838 62.14 64.0324C62.2011 63.4982 62.2672 63.0505 62.4707 62.613L62.7302 62.1958C62.6946 62.2009 62.3741 61.9618 62.257 61.8957ZM61.209 63.5389C60.4103 64.124 59.7336 64.4903 58.7873 64.877C58.7975 64.9075 58.8077 64.938 58.8077 64.9838C58.767 67.5836 58.7365 70.1935 58.3803 72.7627C59.2249 73.1087 60.5629 73.6836 61.3311 73.6836C60.4255 73.9328 60.2576 73.8514 59.6878 73.765C59.2605 73.7039 58.6042 73.4648 58.2938 73.3376C58.2226 73.8413 58.1259 74.3399 58.0242 74.8283C57.2356 78.5218 55.2057 82.0221 56.6404 85.8327C56.6505 85.8734 56.5895 85.8937 56.5691 85.8632C54.9564 83.2024 55.7602 80.3177 56.5997 77.5247C57.8258 73.4444 58.0751 69.3591 58.1158 65.1212C57.9784 65.1619 57.8563 65.2127 57.7291 65.2585C55.1904 67.263 50.866 67.2529 47.9355 66.6169C47.8745 66.6067 47.8847 66.4999 47.9457 66.4999C49.8078 66.5508 51.8682 66.5203 53.7913 66.1031C51.5325 66.3982 49.2583 66.4185 47.2945 66.3218C45.3002 66.2303 42.8429 65.4671 41.3064 64.1393C40.1312 63.1269 39.3019 61.6006 38.6355 60.0489C38.8034 60.5831 38.8848 61.158 38.9153 61.6769C39.2358 62.5316 39.5309 63.4118 39.7802 64.3072C39.8717 64.5361 39.9481 64.7752 39.9989 64.994C40.0091 65.0449 40.0091 65.1008 39.9989 65.1517C40.874 68.5553 41.2861 72.1369 41.3726 75.5202C41.3726 75.6677 41.1233 75.7084 41.1029 75.5507C40.9757 74.6756 40.8435 73.7955 40.6959 72.9306C40.6756 73.2867 40.6451 73.6429 40.584 73.9735C40.5331 74.2686 40.1058 74.1414 40.1465 73.8464C40.4263 71.9334 40.0091 70.3919 39.48 68.6265C39.3986 68.8046 39.2918 68.9826 39.2002 69.1607L39.0221 69.4609C38.4828 70.2952 37.7757 71.038 36.9617 71.674C36.6818 71.8927 36.2748 71.5061 36.5547 71.267C37.8774 70.1935 38.8746 68.8453 39.6428 67.3444C39.6326 67.2732 39.6123 67.2071 39.6021 67.1358C39.5716 67.1358 39.5309 67.146 39.5004 67.1358C38.8339 66.9781 38.2844 66.6118 37.7553 66.1946C37.506 65.9962 37.2059 65.7775 37.0074 65.518C36.809 65.2484 36.7276 64.9126 36.5292 64.6531C36.4885 64.5921 36.5597 64.5158 36.6208 64.5361C36.9108 64.6277 37.2364 64.6429 37.5162 64.765C37.7553 64.8719 37.9537 65.055 38.1725 65.2128C38.5592 65.4926 38.9305 65.7164 39.3579 65.8487C39.3172 65.6605 39.2867 65.4722 39.246 65.284C39.1951 65.0042 39.017 64.1545 38.9763 63.9459C38.9662 63.8951 38.956 63.8289 38.9458 63.7781C38.7067 63.3202 38.4269 62.8826 38.0707 62.4858C37.4755 61.8092 36.6971 61.4225 36.0408 60.8273C36.0306 60.8171 36.0205 60.7967 36.0205 60.7866C35.9798 60.7764 35.9391 60.7764 35.8933 60.7662C35.7661 60.7357 35.7457 60.5169 35.8933 60.4966C37.0481 60.3185 37.3076 58.5989 36.6717 57.7951C36.341 57.3677 35.8831 57.2304 35.3591 57.1591C34.6621 57.0523 34.2754 57.2863 33.8837 57.8612C33.9142 57.8917 33.9447 57.9223 33.9753 57.9426C34.0261 57.9935 34.0465 58.0444 34.0465 58.1105C34.5959 57.4949 35.6287 57.3168 36.1578 58.0495C36.1985 58.1003 36.1883 58.1563 36.168 58.2072C36.4783 58.6956 36.6259 59.3977 36.4783 59.8047C36.3206 60.2626 35.8729 60.5475 35.3743 60.6696C35.3642 60.8985 35.3743 61.0867 35.4557 61.3055C35.4659 61.336 35.4659 61.3666 35.4659 61.4123C36.1426 61.5599 36.9515 62.2976 36.6208 63.0098C36.5801 63.0912 36.5089 63.1269 36.4427 63.1269C36.3511 63.5644 36.0255 63.951 35.5778 64.1087C35.4863 64.1393 35.3998 64.1596 35.3082 64.1698C35.3285 64.18 35.3489 64.18 35.3794 64.1901C35.4201 64.2105 35.4201 64.2817 35.3794 64.3072C34.5349 64.704 33.8735 64.9329 33.3291 65.7673C33.1511 66.0369 33.0188 66.3218 32.8814 66.6017C33.1409 66.2862 33.4309 65.9962 33.7565 65.7368C34.5247 65.111 35.3489 64.7142 36.1883 65.457C36.9362 66.1133 37.1753 67.146 36.9566 68.0974C36.926 68.2144 36.7378 68.189 36.748 68.0669C36.809 66.6983 36.1324 64.9787 34.1889 66.1794C33.6395 66.5253 33.1612 67.2529 32.8458 67.7972C32.22 68.8605 31.869 70.5649 32.2302 71.8876C32.3778 72.2132 32.4897 72.5032 32.6983 72.8187C33.1155 73.4241 33.3647 73.6632 34.1228 73.6632C35.0691 73.6632 35.4456 73.2562 35.7356 72.2946C35.8271 71.969 35.8729 71.6485 35.8933 71.3127C35.6847 71.7299 35.4456 72.1369 35.1454 72.4625C35.1352 72.5134 35.1047 72.5541 35.0436 72.5796C34.8147 72.8085 34.5451 72.9967 34.2093 73.1341C34.1381 73.1646 34.0617 73.0629 34.1075 72.9967C34.2093 72.8288 34.3263 72.6711 34.4382 72.5185C33.8125 72.3201 33.3342 71.735 33.1256 71.0889C32.9577 70.6005 32.9272 70.0561 33.0544 69.5524C33.1155 69.3032 33.2223 69.0742 33.324 68.83C33.5835 68.2144 33.6903 67.7006 33.7717 67.0341C33.7717 67.0138 33.7921 67.0036 33.8124 67.0239C33.8939 67.1104 33.9498 67.1918 33.9905 67.2834C34.1991 66.8764 34.5094 66.4999 34.947 66.154C35.0284 66.0929 35.1556 66.1133 35.2471 66.154C36.2138 66.6678 35.9441 68.6062 35.7661 69.4965C35.7661 69.5168 35.7457 69.5168 35.7356 69.5168C35.6949 69.6237 35.6542 69.7152 35.588 69.8119C35.4405 70.0307 35.2217 70.1477 34.9979 69.9696C34.7791 69.8017 34.6773 69.4558 34.6468 69.1963C34.6265 69.0284 34.6366 68.8707 34.6773 68.7079C34.718 68.5197 34.8147 68.4586 34.9165 68.3009C34.947 68.25 35.0436 68.2806 35.0182 68.3416C34.9368 68.5705 34.9572 69.3235 35.2166 69.5423C35.3438 69.3642 35.3947 69.0081 35.4456 68.8555C35.4761 68.7486 35.5829 68.7181 35.6745 68.7486C35.6643 68.5502 35.6542 68.3416 35.6338 68.1432C35.8119 67.5581 35.6847 67.258 35.237 67.2223C34.9572 67.0545 34.7893 67.1613 34.7486 67.5479C34.2602 68.1025 34.3009 69.0539 34.4789 69.7203C34.5807 70.107 34.9673 71.328 35.6847 70.9108C35.7763 70.86 35.8729 70.8803 35.934 70.9414C35.9441 70.0307 35.8831 69.1251 36.3817 68.3213C36.4936 68.1432 36.7683 68.2602 36.7124 68.4688C36.4224 69.7967 36.5445 71.3077 36.0968 72.5796C35.8373 73.3122 35.2878 74.0092 34.484 74.1669C32.9679 74.4721 31.6451 72.666 31.7265 71.2517C31.4976 70.6259 31.4264 70.0002 31.6248 69.1658C31.7265 68.7384 31.8741 68.3213 32.0725 67.9244C32.0725 66.973 32.7797 65.8029 33.2986 65.1161C33.6293 64.6684 34.1635 64.1952 34.7333 64.1138C34.2958 63.9561 33.9549 63.5695 33.8989 63.0709C33.8379 62.3841 34.3161 61.6006 35.0029 61.4429C34.9012 61.2343 34.8554 60.9952 34.9521 60.7866C34.6723 60.8171 34.4026 60.8069 34.1737 60.756C33.2172 60.5474 33.5072 59.0212 33.8939 58.3649C33.8328 58.3852 33.7667 58.3852 33.7056 58.3445C33.6649 58.314 33.614 58.2835 33.5682 58.2377C33.5479 58.08 33.5174 57.9223 33.4665 57.7595C33.3851 57.5305 33.2884 57.3118 33.1969 57.093C33.207 57.0828 33.2172 57.0726 33.2172 57.0625C33.3291 57.1897 33.4258 57.3321 33.5174 57.4695C33.6089 57.6068 33.7158 57.7086 33.8277 57.8256C34.2449 56.4876 36.2901 56.5741 37.0634 57.5661C37.1041 57.617 37.1448 57.6832 37.1753 57.7544C37.0736 57.4542 36.9667 57.1591 36.865 56.859C36.8345 56.7877 36.9362 56.7318 36.9922 56.7877C37.0736 56.8691 37.1499 56.9556 37.2211 57.037C37.2923 57.0065 37.389 57.0269 37.4297 57.1083C37.5416 57.3474 37.6587 57.6017 37.7604 57.851C37.8113 57.9426 37.852 58.0393 37.8978 58.141C37.7706 57.7849 37.6485 57.444 37.5213 57.1184C37.5213 57.1083 37.5315 57.1083 37.5416 57.1083C38.7474 59.0314 39.4851 61.4174 40.9859 63.1319C42.6496 65.0449 45.8446 65.8029 48.3069 65.7419C51.4765 65.6605 54.7427 65.4722 57.7189 64.4903C57.7596 64.4598 57.7902 64.4394 57.8309 64.4089C57.9021 64.358 57.9886 64.3479 58.0598 64.3682C59.118 63.9917 59.932 63.6153 60.8987 62.9895C60.8987 62.9895 61.1581 62.8623 61.3667 63.0709C61.5906 63.2439 61.209 63.5389 61.209 63.5389ZM72.9562 68.713C72.8392 68.9419 72.6662 69.1607 72.4474 69.3388C72.6459 69.349 72.8341 69.3184 73.0223 69.2218C73.002 69.059 72.9816 68.8809 72.9562 68.713ZM82.2563 69.1861C82.3733 69.0081 82.4649 68.8097 82.5056 68.6011C82.587 68.2246 82.5463 67.8379 82.3835 67.5022C82.1291 68.0364 82.0782 68.6112 82.2563 69.1861ZM81.0251 66.9731C80.8165 67.2122 80.7554 67.5785 80.6588 67.9244C80.6791 67.9346 80.6995 67.9346 80.7198 67.9448C80.9386 68.0618 81.1879 68.1635 81.4067 68.3009C81.4575 68.0923 81.4982 67.8939 81.5338 67.7972C81.6458 67.4971 81.8035 67.2223 81.9917 66.9629C81.7221 66.7085 81.371 66.5966 81.0251 66.9731ZM80.903 66.042C79.799 66.3575 79.8193 67.6904 79.1122 68.4332C79.5497 68.7384 79.9872 69.1353 80.5265 69.0793C80.6079 69.0691 80.674 69.1607 80.6639 69.237C80.6944 69.2268 80.964 69.2167 81.0047 69.2167C81.0353 69.2167 81.3609 69.2268 81.3609 69.2268C81.3609 69.2574 81.3914 69.1098 81.483 68.8911C81.4321 68.83 81.2031 68.774 81.1726 68.7435C81.0047 68.6163 80.674 68.5349 80.4858 68.4434H80.4553C80.3332 68.5909 80.1449 68.6926 79.8499 68.6926C79.7481 68.6926 79.7125 68.5655 79.799 68.5044C80.5367 67.96 80.2569 66.678 81.0861 66.2608C81.0251 66.2404 80.9589 66.2099 80.9386 66.1336C80.9284 66.1031 80.9284 66.0725 80.9182 66.042C80.9132 66.0318 80.9132 66.042 80.903 66.042ZM78.3745 63.193C78.3745 63.2032 78.3846 63.2032 78.3745 63.193C79.1325 64.0375 79.4581 65.5536 79.5802 66.6271C79.5802 66.6373 79.5802 66.6373 79.5802 66.6474C79.8702 66.1692 80.2365 65.8029 80.8826 65.8843C80.7656 65.111 80.8928 63.9002 80.2162 63.483C79.6871 63.1421 79.0002 63.2439 78.3745 63.193ZM74.9454 62.5774C75.2456 62.9437 75.5254 63.2897 75.7747 63.5389C76.5124 64.3123 76.9805 64.8566 77.2094 65.9301C77.4791 67.1511 77.6164 68.423 77.7385 69.7C77.9675 69.7102 78.1964 69.8577 78.405 69.9798C78.8832 70.2749 79.2801 70.6259 79.8397 70.7124C79.8295 70.6819 79.8295 70.6412 79.8193 70.6107C78.5067 70.5598 77.6164 68.5349 78.6238 67.5836C78.7916 67.4258 79.0104 67.6243 78.9137 67.8125V67.8227C79.1223 67.5276 79.2902 67.1766 79.4734 66.851C79.3564 66.8917 79.1834 66.851 79.1274 66.7136C78.7001 65.6605 78.7611 64.1037 77.8047 63.3405C76.9906 62.6486 75.8409 63.1065 74.9454 62.5774ZM66.0117 63.8289C66.3627 64.2258 66.6578 64.6633 66.8664 65.1364C67.4362 65.4061 68.0009 65.6808 68.5707 65.9505C68.3418 66.2303 68.4893 66.6576 68.7183 66.9324C68.9472 67.2122 69.2372 67.4564 69.3339 67.8074C69.3949 68.0364 69.461 68.3721 69.6849 68.3416C69.9138 68.3111 69.8833 67.9651 69.7765 67.7464C69.517 67.202 69.2677 66.6627 69.0083 66.1183C69.5272 65.462 69.9749 64.7498 70.3412 63.9866C69.6137 63.9968 68.9268 64.5005 68.6877 65.1873C67.7821 64.7701 66.8867 64.3072 66.0117 63.8289ZM56.8184 56.8539C56.7167 56.7928 56.559 56.6962 56.4877 56.7063C56.2893 56.8844 56.0807 57.0726 55.8823 57.2507L56.1011 57.4288C56.1418 57.4491 56.1723 57.4695 56.213 57.4898C56.2385 57.2609 56.4114 57.0523 56.8184 56.8539ZM35.181 71.5875C34.6621 71.4806 34.2144 70.7429 34.016 70.2393C33.8582 69.8628 33.7565 69.4965 33.7158 69.1302C33.5682 69.6644 33.4868 70.2291 33.6242 70.7582C33.8023 71.4247 34.25 71.791 34.7689 72.1166C34.9012 71.9487 35.0436 71.7604 35.181 71.5875ZM35.0945 61.972C34.9063 62.0228 34.7537 62.1907 34.6366 62.3993C34.8452 62.5876 35.0742 62.7555 35.354 62.6283C35.5728 62.5367 35.822 62.7351 35.6949 62.9742C35.5371 63.254 35.1963 63.31 34.9165 63.193C34.6977 63.1116 34.5858 62.9539 34.4993 62.7656C34.4687 62.903 34.4687 63.0251 34.4993 63.1319C34.6468 63.6 35.2166 63.717 35.6033 63.4575C35.9899 63.1879 36.0205 62.7046 35.9798 62.2772C35.7203 62.0635 35.3235 61.9211 35.0945 61.972ZM34.2347 60.2676C34.5552 60.6136 35.4506 60.2676 35.761 60.059C36.1985 59.7538 36.1171 59.2552 35.9289 58.8279C35.7712 58.4819 35.5778 58.253 35.181 58.2224C35.1301 58.2224 35.0793 58.2021 35.0436 58.1817C34.8452 58.2428 34.6672 58.3598 34.5247 58.5379C34.2551 58.8584 33.8684 59.8912 34.2347 60.2676ZM39.7853 67.9397C39.7344 68.0974 39.6733 68.2449 39.6072 68.3874C39.7547 68.5858 39.887 68.8046 40.004 69.0233C39.9328 68.6723 39.8565 68.306 39.7853 67.9397ZM38.3607 59.3417C38.2488 59.0619 38.142 58.777 38.0402 58.4972C38.1216 58.7159 38.1979 58.9347 38.2488 59.1636C38.2895 59.2247 38.3302 59.2756 38.3607 59.3417ZM76.5989 77.1075C76.5582 77.1278 76.548 77.1991 76.5989 77.2143C77.2654 77.3415 78.0438 77.194 78.4915 76.6496C78.6797 76.4105 78.8018 76.151 78.8323 75.8356C78.8629 75.4998 78.7815 75.3116 78.6238 75.0318C78.5729 74.9402 78.4559 75.0114 78.466 75.0928C78.5271 75.5202 78.349 76.1358 78.0692 76.4512C77.6775 76.8989 77.1077 76.9193 76.5989 77.1075ZM79.2292 103.288C75.0472 102.8 70.3819 104.209 66.3576 102.713C66.0676 102.606 65.9608 103.013 66.1592 103.171C66.3576 103.329 66.5764 103.451 66.8155 103.558C66.7545 103.537 66.6883 103.609 66.7545 103.66C67.253 104.067 67.6499 104.423 68.2604 104.662C68.5402 104.769 68.8302 104.85 69.1253 104.901C68.4486 105.109 67.7313 105.181 67.0241 105.069C66.8053 105.038 66.7443 105.308 66.9427 105.394C68.1078 105.883 69.3746 105.801 70.4073 105.008C70.6261 104.84 70.5752 104.453 70.2598 104.453C69.166 104.463 67.8381 104.128 66.8715 103.578C68.2146 104.173 70.0003 104.036 71.374 104.005C74.0042 103.944 76.6243 103.609 79.2444 103.471C79.3513 103.466 79.3411 103.298 79.2292 103.288ZM89.2822 98.287C86.6926 96.0841 83.925 94.3594 80.7351 93.1588C77.128 91.8004 73.175 91.719 69.6289 90.2131C69.5781 90.1927 69.5475 90.2741 69.5882 90.3046C72.5441 91.892 75.9426 92.1514 79.0816 93.1944C82.6582 94.3849 86.0821 96.2418 89.094 98.5058C89.2415 98.6126 89.4094 98.3939 89.2822 98.287ZM68.3927 101.39C69.9749 101.996 71.7097 102.255 73.2818 101.828C73.5209 101.767 73.4599 101.431 73.2309 101.411C70.5905 101.212 68.4283 101.024 66.1083 99.5742C65.8896 99.4368 65.6199 99.7116 65.7573 99.9303C66.0168 100.358 66.3525 100.632 66.7138 100.861C66.1643 100.612 65.6199 100.276 65.1722 100.027C65.1417 100.007 65.1112 100.058 65.1417 100.078C66.1083 100.78 66.9325 101.614 68.1586 101.696C68.352 101.701 68.4232 101.543 68.3927 101.39ZM64.6177 67.5785C64.0987 67.6395 63.4628 67.5683 63.4018 66.856C63.4018 66.8153 63.3407 66.8153 63.3407 66.856C63.3611 67.8685 64.5465 68.2653 65.3605 67.8278C65.8896 67.5479 65.9303 67.0443 65.9761 66.4897C66.0269 65.8029 66.1338 65.2077 65.7369 64.6022C65.6962 64.5412 65.5792 64.5819 65.5996 64.6531C65.7878 65.1771 65.6199 65.9555 65.5385 66.4796C65.4419 67.1613 65.3147 67.492 64.6177 67.5785ZM67.6448 79.2494C67.8127 79.1883 67.7923 78.9441 67.6041 78.9339C66.6476 78.8627 65.7929 78.6643 64.984 78.1199C64.9535 78.0996 64.9128 78.1403 64.9331 78.1708C65.4317 79.1018 66.6273 79.6564 67.6448 79.2494ZM26.0488 98.1191C25.9013 97.5036 25.3518 96.9592 25.0618 96.3843C24.7108 95.6975 24.375 94.9038 24.1664 94.1508C24.1359 94.044 23.968 94.0694 23.9782 94.1712C24.0494 94.975 24.1664 95.6669 24.4869 96.4148C24.7566 97.0508 25.1229 97.992 25.7741 98.3277C25.9165 98.4041 26.0895 98.2769 26.0488 98.1191ZM32.7899 85.3646C31.7622 85.1357 30.3783 84.7287 29.3608 85.156C29.3507 85.1662 29.3507 85.1764 29.371 85.1764C29.9662 84.9881 30.6175 85.3036 31.2025 85.4155C31.7011 85.5172 32.2099 85.6139 32.7084 85.6851C32.9018 85.7207 32.9934 85.4155 32.7899 85.3646ZM37.8418 74.4263C36.6869 75.6474 35.4913 77.077 34.7028 78.5727C34.3619 79.2188 33.4156 80.8469 34.0974 81.4726C34.2347 81.5896 34.4484 81.5438 34.4942 81.3658C34.8249 80.1142 35.12 78.995 35.7915 77.8605C36.4682 76.7208 37.2771 75.6474 37.9232 74.4874C37.9537 74.4467 37.8825 74.3805 37.8418 74.4263ZM42.675 76.324C41.7185 74.1414 41.8406 71.8775 41.3878 69.6033C41.3777 69.5728 41.337 69.583 41.337 69.6135C41.1589 71.8368 41.225 74.5281 42.4104 76.4919C42.5224 76.6598 42.7615 76.5021 42.675 76.324ZM38.7983 73.1951C39.2256 72.6711 39.4139 71.7655 39.307 71.1092C39.2867 70.9617 39.0781 70.9821 39.0374 71.1092C38.9458 71.4552 38.9255 71.8317 38.839 72.1725C38.7677 72.488 38.6609 72.7983 38.6406 73.1239C38.6406 73.2155 38.7576 73.2562 38.7983 73.1951ZM27.3309 98.5923C27.2597 98.5109 27.1528 98.6126 27.1935 98.6991C28.1398 100.734 30.0833 102.184 32.103 103.064C32.51 103.242 32.7288 102.678 32.332 102.51C30.2919 101.65 28.8063 100.2 27.3309 98.5923ZM28.5875 83.6399C28.847 83.5433 28.7554 83.1617 28.4756 83.2227C23.4033 84.342 19.3994 89.7603 19.1246 94.8428C19.1145 95.0005 19.3536 95.0208 19.3841 94.8733C20.539 89.801 23.6577 85.5121 28.5875 83.6399ZM37.6434 83.5178C40.0244 83.9554 42.4155 83.8638 44.7965 83.9961C44.7965 83.935 44.8169 83.8587 44.8677 83.7976C45.5342 83.004 45.7123 82.0322 45.4732 81.03C45.463 80.9893 45.5139 80.9689 45.5342 80.9995C46.043 81.8135 46.043 82.8056 45.636 83.6501C46.0226 83.2024 46.3024 82.6682 46.4144 82.0831C46.4347 81.9916 46.5924 82.0119 46.5924 82.1035C46.5822 82.2612 46.5619 82.4036 46.5415 82.5512C46.6026 82.5512 46.6789 82.5715 46.7196 82.6122C47.1164 83.0294 47.0096 83.7112 46.6687 84.1385C47.0757 84.1894 47.4878 84.2555 47.8948 84.3369C48.3832 84.4285 48.1747 85.1611 47.6863 85.0797C44.3386 84.4743 40.7824 84.922 37.5976 83.5636C37.5722 83.5687 37.6027 83.5076 37.6434 83.5178ZM45.9412 84.0825C46.043 84.0927 46.1498 84.1029 46.2414 84.1131C46.4194 83.8333 46.4805 83.5178 46.3991 83.182C46.2973 83.5077 46.1498 83.7976 45.9412 84.0825ZM23.7391 94.9394C23.5508 93.8659 23.6271 92.7569 23.8663 91.6936C23.8866 91.602 23.7645 91.5664 23.7187 91.6528C23.0115 93.4182 22.864 96.079 24.2071 97.6002C24.3547 97.7579 24.6141 97.59 24.5582 97.3916C24.3241 96.5674 23.8866 95.8145 23.7391 94.9394ZM30.3631 102.174C28.9182 101.212 27.626 100.022 26.4507 98.7398C26.3795 98.6686 26.2523 98.7602 26.3032 98.8568C26.5118 99.1723 26.7306 99.4826 26.9798 99.798C26.5423 99.4216 26.0946 99.0553 25.6367 98.7246C25.596 98.694 25.5452 98.7551 25.5757 98.7856C26.2625 99.8286 27.1376 100.683 28.1042 101.477C28.2416 101.584 28.3942 101.548 28.501 101.457C30.2155 103.095 32.3778 104.443 34.5451 104.631C34.7028 104.641 34.7435 104.423 34.6163 104.346C33.2223 103.527 31.7164 103.059 30.3631 102.174ZM21.7956 89.7094C21.1291 90.1571 20.8799 90.8795 20.6407 91.6071C20.4627 92.1514 20.3507 92.7009 20.2032 93.2453C20.0455 93.8202 19.786 94.3442 19.6639 94.914C19.6232 95.092 19.842 95.2396 19.9743 95.092C20.5797 94.4663 20.6611 93.5047 20.7934 92.6704C20.9816 91.5613 21.2716 90.7167 21.8312 89.745C21.8567 89.7297 21.8261 89.684 21.7956 89.7094ZM25.2908 95.8552C25.4587 96.5573 25.708 97.295 26.3388 97.702C26.5271 97.8292 26.7967 97.5748 26.6593 97.3764C26.2727 96.8422 25.7741 96.4046 25.535 95.7789C25.479 95.6364 25.2501 95.6975 25.2908 95.8552Z" fill="#333333"/>
<path d="M129.287 34.0631C130.869 34.0631 132.141 34.4905 133.108 35.3401C134.075 36.1897 134.558 37.309 134.558 38.703C134.558 39.8375 134.237 40.9822 133.601 42.1371C132.965 43.2716 132.101 44.2739 131.017 45.1438C129.954 46.0189 128.773 46.6294 127.476 46.9855L126.947 46.0647C127.959 45.5915 128.773 44.8742 129.389 43.9076C130.025 42.9155 130.345 41.8522 130.345 40.7227C130.345 39.3796 129.979 38.3061 129.246 37.5023C128.514 36.6781 127.557 36.2609 126.382 36.2609C125.131 36.2609 123.95 36.7697 122.841 37.7821C121.758 38.7742 120.882 40.1173 120.221 41.8166C119.585 43.4904 119.265 45.2965 119.265 47.2348C119.265 49.219 119.57 50.9742 120.185 52.5106C120.801 54.0216 121.651 55.202 122.734 56.0516C123.843 56.9012 125.105 57.3286 126.519 57.3286C127.532 57.3286 128.549 57.0793 129.562 56.5858C130.6 56.0668 131.602 55.3241 132.569 54.3574L133.525 55.2427C132.416 56.6824 131.037 57.8882 129.384 58.8548C127.756 59.8011 126.046 60.2692 124.25 60.2692C122.317 60.2692 120.618 59.8215 119.153 58.9261C117.713 58.0306 116.604 56.7893 115.825 55.207C115.047 53.5994 114.655 51.7729 114.655 49.7176C114.655 46.838 115.306 44.2077 116.604 41.8217C117.927 39.4152 119.697 37.5277 121.91 36.1592C124.169 34.7601 126.621 34.0631 129.287 34.0631Z" fill="#F3F2F2"/>
<path d="M142.117 51.127H142.259C142.778 48.8376 143.628 46.7263 144.808 44.7879C145.989 42.8546 147.439 41.8829 149.163 41.8829C149.967 41.8829 150.557 42.1322 150.934 42.6257C151.336 43.1192 151.585 43.7094 151.676 44.3962C151.768 45.0576 151.819 45.8716 151.819 46.8382V56.647C151.819 56.932 151.9 57.2016 152.068 57.4611C152.256 57.6951 152.516 57.8172 152.847 57.8172C153.411 57.8172 154.001 57.4051 154.617 56.5809L155.217 57.2525C154.816 58.0563 154.236 58.738 153.483 59.3028C152.73 59.8675 151.9 60.1524 151.005 60.1524C148.761 60.1524 147.642 58.9161 147.642 56.4334V47.1587C147.642 46.8535 147.581 46.5787 147.464 46.3447C147.367 46.0853 147.194 45.953 146.935 45.953C145.943 45.953 145.083 46.7772 144.35 48.4306C143.643 50.0841 143.089 51.997 142.687 54.1643C142.31 56.3367 142.122 58.0919 142.122 59.4401L137.874 60.361V28.6858L142.122 27.2002V51.127H142.117Z" fill="#F3F2F2"/>
<path d="M161.726 38.4898L159.497 39.1969L158.047 31.7996L162.967 30.136L161.726 38.4898ZM162.86 56.6524C162.86 57.0085 162.941 57.2883 163.109 57.502C163.277 57.7157 163.501 57.8225 163.781 57.8225C164.371 57.8225 164.971 57.4104 165.587 56.5863L166.223 57.2578C165.704 58.199 165.032 58.9214 164.203 59.4149C163.399 59.9084 162.601 60.1577 161.797 60.1577C159.65 60.1577 158.576 58.9214 158.576 56.4387V43.6944L162.86 42.2088V56.6524Z" fill="#F3F2F2"/>
<path d="M197.172 42.209C198.424 42.209 199.579 42.4583 200.642 42.9518C201.726 43.4453 202.53 44.2135 203.049 45.2514L199.614 46.6657C199.284 46.0501 198.826 45.5464 198.236 45.1445C197.646 44.7426 197.02 44.5442 196.358 44.5442C194.776 44.5442 193.525 45.2056 192.604 46.5283C191.683 47.8511 191.225 49.4995 191.225 51.4836C191.225 53.2999 191.495 54.8007 192.039 55.981C192.583 57.1359 193.443 57.7159 194.624 57.7159C196.277 57.7159 197.406 56.9477 198.022 55.4163C198.638 53.8595 198.943 52.1704 198.943 50.3542V48.7974L203.084 47.3118V56.5152C203.084 56.8459 203.155 57.141 203.298 57.4005C203.466 57.6345 203.7 57.7566 204.005 57.7566C204.595 57.7566 205.196 57.3445 205.811 56.5152L206.483 57.1868C206.127 58.011 205.562 58.7232 204.783 59.3134C204.03 59.8781 203.216 60.163 202.341 60.163C201.207 60.163 200.383 59.7865 199.864 59.0285C199.345 58.2501 199.085 57.258 199.085 56.0523H198.943C198.378 57.3292 197.62 58.3671 196.679 59.1659C195.733 59.9443 194.639 60.336 193.387 60.336C191.5 60.336 190.035 59.6492 188.997 58.2806C187.984 56.8866 187.475 55.0805 187.475 52.8624C187.475 50.9749 187.877 49.2146 188.681 47.5865C189.505 45.9585 190.65 44.6612 192.115 43.6946C193.601 42.7025 195.285 42.209 197.172 42.209Z" fill="#F3F2F2"/>
<path d="M182.341 57.5517C181.719 57.5517 181.06 57.1662 180.355 56.4001C179.673 55.6089 178.89 54.5624 178.014 53.2656C177.82 53.0352 177.632 52.7648 177.438 52.4644C178.871 51.5331 179.539 50.9122 180.691 49.6754C181.65 48.6489 182.092 48.1231 182.539 47.4472C182.977 46.7912 183.738 45.5094 184.014 44.8184C184.659 43.2061 185.231 40.7074 185.171 40.4421C183.281 40.9725 182.613 41.273 181.069 41.7737C180.424 44.9633 179.387 47.8377 176.899 50.5667C175.917 51.6382 175.816 51.8685 173.995 53.3306L173.862 53.4158C173.834 53.4308 173.807 53.4508 173.779 53.4708L173.125 53.8864L173.134 48.6639V27.5134L169.318 28.9755V60.1605L173.134 59.2542C173.157 58.5582 173.207 57.732 173.295 56.7806C173.401 55.8292 173.521 55.1082 173.65 54.6225L173.94 54.4473C174.134 54.6325 174.581 55.1883 175.286 56.1197C176.203 57.3715 177.028 58.3479 177.756 59.0439C178.502 59.7399 179.337 60.0904 180.258 60.0904C181.198 60.0904 182.097 59.81 182.95 59.2542C183.807 58.6984 184.466 57.9974 184.936 57.1612L184.36 56.4652C183.807 57.1912 183.134 57.5517 182.341 57.5517Z" fill="#F3F2F2"/>
</svg>
